<svg width="17" height="17" viewBox="0 0 17 17" fill="none" xmlns="http://www.w3.org/2000/svg">
<g clip-path="url(#clip0_93_1877)">
<path d="M10.8049 0.00144595V4.85404C10.8049 5.39868 11.6178 6.17082 12.1632 6.17082H16.9985L17.0005 13.1538C16.8989 15.0822 15.5987 16.6009 13.6748 16.9123C11.1582 16.9084 8.59507 17.0733 6.0765 16.96C3.94019 16.8636 2.01824 15.8187 0.901936 13.9968C-0.912114 11.0369 0.110315 7.19021 3.07212 5.44977C3.14034 4.50557 2.97679 3.59944 3.2618 2.6803C3.7418 1.13121 5.22294 0.0684415 6.83715 0L10.8049 0.00144595ZM2.88534 14.0594C5.27714 16.4419 9.38137 15.5222 10.5248 12.3681C11.9087 8.55133 8.0362 4.93984 4.29681 6.56171C1.3321 7.84715 0.59032 11.7739 2.88486 14.0594H2.88534Z" fill="#36AFFA"/>
<path d="M16.4917 4.61935H12.3623V0.506592L16.4917 4.61935Z" fill="#36AFFA"/>
<path d="M6.01402 10.7974C6.41709 10.7289 6.87871 11.0013 6.93 11.4191C6.96822 11.7315 6.97355 13.0328 6.91306 13.3162C6.75387 14.0628 5.49627 14.0392 5.40773 13.2242C5.37289 12.9036 5.35789 11.6404 5.41595 11.356C5.46482 11.1165 5.77015 10.8388 6.01402 10.7974Z" fill="#36AFFA"/>
<path d="M5.9429 7.7315C7.68727 7.47749 7.75695 10.005 6.18532 10.032C4.77385 10.0566 4.60256 7.92622 5.9429 7.7315Z" fill="#36AFFA"/>
</g>
<defs>
<clipPath id="clip0_93_1877">
<rect width="17" height="17" fill="white"/>
</clipPath>
</defs>
</svg>
