<svg width="17" height="17" viewBox="0 0 17 17" fill="none" xmlns="http://www.w3.org/2000/svg">
<g clip-path="url(#clip0_93_1870)">
<path d="M9.96707 0.0121372C15.2328 -0.301493 18.773 5.46607 16.0699 10.0258C13.4843 14.3872 7.06691 14.3624 4.5729 9.93932C2.14227 5.62865 5.06087 0.304435 9.96707 0.0121372ZM9.8916 2.21216C6.94246 2.47217 5.0891 5.62749 6.22808 8.35907C7.62862 11.7179 12.3326 12.0713 14.175 8.92579C16.0376 5.74568 13.5401 1.89046 9.8916 2.21216Z" fill="#36AFFA"/>
<path d="M3.55905 10.9338C4.14208 10.8254 4.3852 11.4285 4.72453 11.798C4.86222 11.9473 5.02987 12.1157 5.17908 12.2535C5.62212 12.6628 6.4523 13.0185 5.90096 13.7328C4.94749 14.5705 4.09253 15.6907 3.13388 16.5019C1.31335 18.0424 -1.04296 15.6884 0.497573 13.8637C1.30241 12.9113 2.41431 12.0615 3.24564 11.1142C3.33321 11.0364 3.44037 10.9563 3.55847 10.9344L3.55905 10.9338Z" fill="#36AFFA"/>
<path d="M9.96752 3.42573C13.2341 3.10806 14.8783 7.11319 12.3809 9.17888C10.7758 10.5066 8.2628 9.8955 7.40324 8.01775C6.49182 6.02644 7.78174 3.63847 9.96752 3.42573ZM8.7525 6.04085C8.07038 6.155 8.05425 7.06822 8.70814 7.2429L11.962 7.24175C12.6597 7.0884 12.6246 6.16019 11.924 6.03451C10.9648 6.13367 9.67255 5.88634 8.7525 6.04027V6.04085Z" fill="#36AFFA"/>
</g>
<defs>
<clipPath id="clip0_93_1870">
<rect width="17" height="17" fill="white"/>
</clipPath>
</defs>
</svg>
