<svg width="19" height="19" viewBox="0 0 19 19" fill="none" xmlns="http://www.w3.org/2000/svg">
<path d="M10.0591 0L11.4393 0.197019C19.1508 1.83683 21.7192 11.671 15.5703 16.8056C10.054 21.4118 1.64196 18.3599 0.19711 11.4341L0 10.0545V8.94158L0.211056 7.50158C0.979039 3.88647 3.88826 0.979053 7.50457 0.210959L8.94524 0H10.0586H10.0591ZM8.8267 1.60635C7.63985 1.69603 6.35399 2.14444 5.34799 2.76709C5.15181 2.88837 4.72923 3.14765 4.58419 3.30192C4.55955 3.32841 4.5205 3.34281 4.53073 3.38974L7.55571 6.41705C7.60871 6.43099 7.61522 6.38359 7.64032 6.3571C7.80861 6.17821 8.0006 5.78789 8.15029 5.5681C8.31207 5.33066 9.16838 4.06119 9.32551 3.99753C9.42639 3.95664 9.54819 3.95385 9.65232 3.98591C9.8076 4.03424 10.4115 4.9329 10.5491 5.12946C11.2046 6.06622 11.88 7.11498 12.416 8.1233C12.952 9.13163 13.5908 10.4113 13.4323 11.5521L13.3049 12.1668L15.6405 14.4665C16.3871 13.5683 16.93 12.4847 17.1964 11.3448C18.4325 6.05647 14.2221 1.19698 8.82577 1.60496L8.8267 1.60635ZM3.36295 4.52771C2.53732 5.51931 1.96691 6.73953 1.72424 8.01225C0.681516 13.4883 5.50977 18.3139 10.9879 17.2717C12.2543 17.0305 13.4904 16.4548 14.4741 15.6337L12.522 13.6556C12.1422 13.9865 11.8094 14.3196 11.3589 14.5627C9.32319 15.6611 6.71986 14.7443 5.84681 12.6134C5.3122 11.3081 5.56649 10.2933 6.11783 9.06425C6.19454 8.89326 6.73008 7.91978 6.71335 7.85426L3.36295 4.52771ZM7.45158 10.692C6.90255 10.7882 7.19078 11.7454 7.34233 12.0837C7.68448 12.849 8.60309 13.4637 9.45057 13.4637C9.77133 13.4637 10.0145 13.1454 9.83735 12.8545C9.68301 12.6018 9.27391 12.6701 9.0001 12.579C8.61239 12.4498 8.20376 12.0902 8.04756 11.7133C7.91181 11.3857 7.99874 10.5963 7.45204 10.6924L7.45158 10.692Z" fill="#36AFFA"/>
</svg>
