<svg width="22" height="18" viewBox="0 0 22 18" fill="none" xmlns="http://www.w3.org/2000/svg">
<path d="M17.3582 14.4616C14.6161 13.7201 11.8924 12.9825 9.13505 12.2369C9.06135 12.5177 8.98765 12.7912 8.91875 13.0664C8.70647 13.9073 8.20579 14.2042 7.36945 13.9855C7.1099 13.9178 6.84794 13.8556 6.58919 13.7846C5.93871 13.6063 5.62468 13.0834 5.78249 12.4249C5.90666 11.9076 6.05006 11.396 6.17262 10.8788C6.19666 10.7779 6.19105 10.6536 6.155 10.556C5.98757 10.0984 5.96034 9.63523 6.07409 9.16558C6.19986 8.64913 6.32884 8.13268 6.47543 7.62187C6.71736 6.78022 7.28934 6.29281 8.12407 6.08865C8.23062 6.06283 8.34838 5.99182 8.41407 5.90628C8.92596 5.23489 9.42985 4.55705 9.93053 3.87597C10.871 2.59533 12.3602 2.05709 13.8855 2.46137C15.2081 2.8124 16.5235 3.19086 17.8509 3.52252C19.7383 3.99379 20.6419 5.39386 20.7853 7.0457C20.8534 7.83652 20.9551 8.62492 21.052 9.41332C21.0625 9.49563 21.1257 9.58359 21.1882 9.64492C21.8523 10.2929 22.172 11.0434 21.9068 11.9819C21.7834 12.4176 21.6761 12.8582 21.5671 13.298C21.4518 13.7628 21.2074 14.1389 20.851 14.456C20.7372 14.5577 20.6419 14.7094 20.5962 14.8563C20.4512 15.3219 20.3359 15.7964 20.2053 16.2668C20.0218 16.9293 19.4947 17.24 18.8282 17.0778C18.5086 17.0003 18.1889 16.9196 17.8725 16.8309C17.2821 16.6663 16.9577 16.1224 17.0931 15.518C17.1708 15.171 17.2653 14.828 17.3582 14.4608V14.4616ZM10.6363 6.57928C13.4209 7.32572 16.1438 8.05521 18.9067 8.796C18.8346 8.18997 18.7657 7.63882 18.7049 7.08605C18.6223 6.33477 18.2106 5.82558 17.4872 5.62788C16.1422 5.25991 14.7963 4.89839 13.4481 4.54333C12.8393 4.38274 12.2705 4.49894 11.8523 4.97747C11.4246 5.46649 11.0617 6.0128 10.6363 6.57928ZM19.2856 10.5721C18.7016 10.6318 18.2034 10.8909 17.8044 11.3315C17.4007 11.7777 17.4864 12.165 18.0432 12.3805C18.3724 12.508 18.7177 12.5943 19.0589 12.688C19.4915 12.8066 19.872 12.7001 20.1564 12.3498C20.4448 11.9948 20.4833 11.5873 20.2894 11.1733C20.0939 10.7577 19.7286 10.6052 19.2856 10.5713V10.5721ZM9.59648 10.1372C10.2181 10.1444 10.428 9.92735 10.3687 9.48191C10.287 8.87024 10.0074 8.35378 9.51396 7.98097C9.0261 7.613 8.35799 7.75906 8.05037 8.27874C7.70671 8.85813 7.87414 9.57552 8.45573 9.81196C8.8755 9.98303 9.33212 10.0637 9.59648 10.1372Z" fill="#36AFFA"/>
<path d="M3.30153 10.8586C3.4209 10.2509 3.52984 9.69495 3.63959 9.13896C3.69567 8.85652 3.75495 8.5749 3.80782 8.29246C3.8671 7.97855 3.76937 7.85348 3.45454 7.82523C2.66947 7.75422 1.88361 7.68079 1.09854 7.60977C0.925505 7.59363 0.730841 7.55006 0.727637 7.358C0.725233 7.23615 0.842192 7.07234 0.951941 6.99487C1.57759 6.55589 2.21766 6.13788 2.85132 5.711C3.2054 5.47295 3.22062 5.35433 2.95226 5.0267C2.466 4.4352 1.98054 3.84209 1.49348 3.25059C1.38533 3.11986 1.27478 2.98913 1.38132 2.80757C1.48386 2.63246 1.63767 2.64375 1.81311 2.68087C2.57655 2.83904 3.34159 2.98671 4.10663 3.13923C4.46952 3.21185 4.57607 3.13035 4.60971 2.75431C4.67941 1.98043 4.7499 1.20656 4.8204 0.433495C4.822 0.415742 4.8188 0.395568 4.82681 0.38185C4.90371 0.258385 4.95578 0.0840821 5.06713 0.0251741C5.23055 -0.0611704 5.34511 0.0913447 5.43563 0.229335C5.86181 0.876515 6.2912 1.52208 6.71898 2.16846C6.94729 2.51303 7.06264 2.52997 7.37907 2.26771C7.96707 1.77869 8.55667 1.28968 9.14227 0.79824C9.28086 0.682038 9.41864 0.569871 9.6045 0.68688C9.77673 0.795012 9.7511 0.955597 9.71425 1.12909C9.61091 1.61488 9.534 2.10713 9.42025 2.59049C9.37859 2.76802 9.28566 2.94394 9.17832 3.09323C8.72731 3.72346 8.26668 4.34643 7.79964 4.96537C7.73235 5.05494 7.62501 5.13322 7.52007 5.17195C6.49708 5.55042 5.82656 6.26861 5.50132 7.30797C5.32749 7.86477 5.17288 8.42964 5.0431 8.99855C4.97661 9.29228 4.99343 9.60458 4.95418 9.90557C4.93976 10.0121 4.8949 10.1404 4.8196 10.2082C4.50156 10.4914 4.17392 10.765 3.83266 11.0192C3.74614 11.0837 3.58832 11.1023 3.48258 11.0724C3.39927 11.049 3.34639 10.9175 3.30073 10.861L3.30153 10.8586Z" fill="#36AFFA"/>
</svg>
