<svg width="17" height="17" viewBox="0 0 17 17" fill="none" xmlns="http://www.w3.org/2000/svg">
<g clip-path="url(#clip0_340_4907)">
<path d="M0.142474 2.885C0.299436 2.0874 0.872347 1.46859 1.69291 1.35085L9.19962 1.34998C9.8545 1.4917 9.84186 2.37696 9.19613 2.52305L1.95233 2.52479C1.6419 2.53569 1.36809 2.74065 1.34847 3.06336L1.37463 15.2807C1.44744 15.4447 1.55339 15.5507 1.71733 15.6235L12.7247 15.6497C12.9968 15.6405 13.2335 15.4094 13.2619 15.1425L13.2654 9.07436C13.3731 8.30598 14.372 8.3099 14.4688 9.07131C14.372 11.0481 14.5987 13.1491 14.4705 15.1115C14.4086 16.0587 13.7376 16.7717 12.7893 16.8576L1.79014 16.8559C0.938184 16.7787 0.278943 16.1237 0.141602 15.2894V2.885H0.142474Z" fill="white"/>
<path d="M14.8304 0.142883C15.0502 0.20001 15.2612 0.243619 15.4727 0.333017C16.3669 0.711103 16.9363 1.66439 16.85 2.63555C16.751 3.74757 15.8284 4.38381 15.1073 5.10336C12.8143 7.39106 10.5331 9.6901 8.23583 11.9734L4.33838 13.2673C3.95251 13.2874 3.67129 12.9394 3.73712 12.5661C4.20278 11.4196 4.45653 10.0329 4.94966 8.91518C5.00154 8.79787 5.05953 8.71371 5.13845 8.61472L13.133 0.648306C13.4762 0.376189 13.8817 0.226176 14.3085 0.142883H14.8309H14.8304ZM15.341 1.6561C14.9229 1.23789 14.2318 1.25665 13.8032 1.64563L6.06583 9.37961L5.26794 11.731L7.61888 10.9329L15.3514 3.19417C15.7504 2.76637 15.7569 2.07256 15.341 1.6561Z" fill="white"/>
</g>
<defs>
<clipPath id="clip0_340_4907">
<rect width="16.7143" height="16.7143" fill="white" transform="translate(0.142578 0.142883)"/>
</clipPath>
</defs>
</svg>
