<svg width="14" height="18" viewBox="0 0 14 18" fill="none" xmlns="http://www.w3.org/2000/svg">
<g clip-path="url(#clip0_859_1949)">
<path d="M7.87101 -8.90417e-05C7.87101 0.097526 7.87101 0.172654 7.87101 0.24727C7.87101 1.25 7.86445 2.25272 7.87265 3.25596C7.88248 4.46618 8.74519 5.4454 10.0046 5.68151C10.1974 5.7178 10.3979 5.72853 10.5946 5.72955C11.6393 5.73415 12.6845 5.7316 13.7297 5.7316C13.8105 5.7316 13.8914 5.7316 13.999 5.7316C13.999 5.81184 13.999 5.87317 13.999 5.935C13.999 9.11593 14.0012 12.2968 13.9979 15.4778C13.9968 16.7197 13.1467 17.705 11.8731 17.9473C11.6808 17.9841 11.4797 17.9968 11.283 17.9974C8.4283 18.0004 5.57355 18.0009 2.71881 17.9989C1.14638 17.9979 0.002293 16.9302 0.00174664 15.4609C-0.000438813 11.1556 0.00010755 6.85085 0.00120028 2.54557C0.002293 1.06294 1.14255 0.00195525 2.73138 0.000422032C4.36391 -0.00111119 5.99589 0.000422032 7.62842 0.000422032C7.70164 0.000422032 7.77485 0.000422032 7.87156 0.000422032L7.87101 -8.90417e-05ZM6.55919 11.0411C6.55919 11.2767 6.55755 11.4868 6.55974 11.6968C6.56083 11.7924 6.56083 11.889 6.57668 11.983C6.67721 12.5708 7.35197 12.8754 7.88631 12.5539C8.75284 12.0326 9.61227 11.5001 10.4591 10.9512C11.0377 10.5761 11.0607 9.90349 10.5149 9.55289C9.64887 8.99684 8.77415 8.45102 7.88795 7.92308C7.72458 7.82546 7.48473 7.78356 7.28859 7.80144C6.84986 7.8408 6.57231 8.17555 6.56029 8.61661C6.55318 8.87572 6.55919 9.13535 6.55919 9.41235C6.45538 9.41235 6.38162 9.41235 6.30787 9.41235C5.51564 9.41235 4.72341 9.40724 3.93119 9.41541C3.43454 9.42052 3.06138 9.78236 3.06466 10.2336C3.06793 10.6762 3.43782 11.0304 3.92463 11.0386C4.47099 11.0478 5.01736 11.0416 5.56372 11.0416C5.88389 11.0416 6.20351 11.0416 6.55865 11.0416L6.55919 11.0411Z" fill="#36AFFA"/>
<path d="M13.8848 4.09166C12.7227 4.09166 11.5901 4.09779 10.4575 4.08859C10.0221 4.08501 9.63905 3.75588 9.63304 3.35316C9.6161 2.2753 9.62758 1.19694 9.62758 0.102219C10.0958 0.214655 10.4755 0.439527 10.8028 0.746682C11.4049 1.31193 12.0053 1.87871 12.6058 2.44549C12.8271 2.65401 13.0511 2.85946 13.268 3.07207C13.5592 3.35776 13.7674 3.68893 13.8854 4.09166H13.8848Z" fill="#36AFFA"/>
</g>
<defs>
<clipPath id="clip0_859_1949">
<rect width="14" height="18" fill="white"/>
</clipPath>
</defs>
</svg>
