<svg width="23" height="17" viewBox="0 0 23 17" fill="none" xmlns="http://www.w3.org/2000/svg">
<path d="M11.0685 13.2566C8.50289 13.2566 5.93652 13.2566 3.37088 13.2566C2.44564 13.2566 1.90763 12.8909 1.60312 12.0154C1.13977 10.6806 0.937007 9.3173 1.25396 7.91668C1.42525 7.15969 1.82345 6.53946 2.43467 6.05309C2.53129 5.97629 2.60595 5.85268 2.65353 5.73566C3.22083 4.33212 3.7808 2.92564 4.34444 1.52137C4.62113 0.832393 5.10351 0.504728 5.84283 0.503997C9.33151 0.503266 12.8209 0.503266 16.3096 0.503997C17.0636 0.503997 17.5503 0.833856 17.8285 1.52868C18.3936 2.941 18.9565 4.35479 19.5252 5.76565C19.564 5.86219 19.6248 5.96532 19.7046 6.02749C20.5149 6.65649 20.9094 7.50417 21.02 8.50033C21.162 9.77662 20.9453 11.0061 20.4973 12.1997C20.247 12.8653 19.6533 13.2566 18.906 13.2566C16.2935 13.2588 13.6803 13.2573 11.0678 13.2573L11.0685 13.2566ZM11.0839 5.4687C12.9607 5.4687 14.8376 5.4687 16.7144 5.4687C17.2026 5.4687 17.3776 5.20613 17.196 4.74974C16.8593 3.90132 16.5219 3.05364 16.183 2.20668C16.0673 1.91778 15.9656 1.84903 15.6515 1.84903C12.6094 1.8483 9.56794 1.8483 6.52578 1.84903C6.19711 1.84903 6.10781 1.9112 5.98264 2.22351C5.64885 3.05583 5.31652 3.88889 4.9842 4.72268C4.78876 5.21271 4.96663 5.47016 5.50025 5.47016C7.36098 5.47016 9.22244 5.47016 11.0832 5.47016L11.0839 5.4687ZM11.0898 8.43158C9.95516 8.43158 8.82057 8.43085 7.68599 8.43158C7.25777 8.43158 7.14504 8.59103 7.29071 8.98232C7.46712 9.45773 7.65305 9.93021 7.81628 10.41C7.89826 10.6506 8.04173 10.734 8.28768 10.7325C9.48449 10.7252 10.682 10.7289 11.8788 10.7289C12.5596 10.7289 13.2403 10.7267 13.9211 10.7304C14.1004 10.7311 14.2461 10.6901 14.3149 10.5044C14.5199 9.94776 14.727 9.3919 14.9305 8.83531C14.9979 8.651 14.9152 8.52666 14.7453 8.46742C14.6524 8.43524 14.5462 8.43231 14.4459 8.43231C13.3267 8.43012 12.2082 8.43085 11.089 8.43085L11.0898 8.43158ZM17.8497 10.1957C18.1776 10.1957 18.5063 10.2037 18.8342 10.1928C19.4118 10.1745 19.8422 9.77881 19.8861 9.2288C19.9 9.05034 19.8978 8.86969 19.8883 8.69049C19.8766 8.46084 19.747 8.32626 19.5165 8.32407C18.9301 8.31895 18.3431 8.30578 17.7582 8.33431C17.0701 8.36795 16.4736 8.9911 16.4216 9.68373C16.3945 10.0399 16.5314 10.1913 16.8879 10.195C17.2085 10.1979 17.5291 10.195 17.849 10.195L17.8497 10.1957ZM4.67456 10.1957C4.99518 10.1957 5.31506 10.1979 5.63567 10.1957C6.0002 10.1928 6.12537 10.0538 6.10049 9.68738C6.05144 8.96916 5.44755 8.36356 4.72507 8.33065C4.29612 8.3109 3.86571 8.33211 3.43603 8.31821C2.6162 8.29188 2.60888 8.40159 2.64109 9.18126C2.66524 9.77223 3.09712 10.1789 3.69003 10.1942C4.01797 10.203 4.34663 10.1957 4.67456 10.1964V10.1957Z" fill="#36AFFA"/>
<path d="M16.1653 13.7437C17.4419 13.6003 18.7207 13.9214 19.9695 13.4965C19.9732 13.5411 19.9812 13.5916 19.9812 13.642C19.982 14.2279 19.9864 14.8137 19.9805 15.3988C19.9754 15.9152 19.6409 16.2487 19.1248 16.2524C18.4214 16.2575 17.7179 16.2582 17.0145 16.2524C16.5035 16.248 16.1763 15.9284 16.1675 15.4193C16.158 14.8598 16.1653 14.2996 16.1653 13.743V13.7437Z" fill="#36AFFA"/>
<path d="M2.19966 13.4504C2.73109 13.7422 3.27203 13.7159 3.81078 13.7144C4.5296 13.7122 5.24768 13.7144 6.00529 13.7144C6.00529 13.8695 6.00529 14.0136 6.00529 14.1584C6.00529 14.5797 6.00895 15.0017 6.00383 15.4229C5.99797 15.9152 5.67224 16.248 5.18107 16.2531C4.46225 16.2604 3.74343 16.2604 3.02462 16.2531C2.56493 16.248 2.2143 15.9305 2.20405 15.491C2.18868 14.8283 2.19966 14.165 2.19966 13.4518V13.4504Z" fill="#36AFFA"/>
<path d="M19.5076 4.48788C20.1774 4.20703 20.8355 4.08781 21.517 4.29699C22.3053 4.53981 22.4803 5.25658 21.8559 5.79123C21.5689 6.03698 21.1898 6.17887 20.8443 6.35001C20.7923 6.37561 20.6817 6.31783 20.6159 6.27322C20.5471 6.22641 20.5039 6.14449 20.4431 6.08452C20.2821 5.92654 20.0669 5.79927 19.9666 5.61057C19.7821 5.26316 19.6643 4.88064 19.5091 4.48788H19.5076Z" fill="#36AFFA"/>
<path d="M2.66885 4.47907C2.52026 4.85428 2.38045 5.21632 2.23112 5.57543C2.20331 5.64345 2.14255 5.7005 2.08838 5.75389C1.96102 5.87969 1.82267 5.99525 1.69896 6.12471C1.43764 6.39825 1.42959 6.42166 1.10019 6.25051C0.813251 6.10131 0.516793 5.93528 0.292071 5.71001C-0.202756 5.21412 -0.0483056 4.59683 0.60024 4.32914C1.14411 4.10533 2.05691 4.16677 2.66885 4.47907Z" fill="#36AFFA"/>
</svg>
