<svg width="15" height="22" viewBox="0 0 15 22" fill="none" xmlns="http://www.w3.org/2000/svg">
<path d="M7.95374 0C8.50186 0.108401 9.06136 0.174044 9.59638 0.333032C11.1053 0.780488 12.3455 1.67901 13.3324 2.96356C14.065 3.91629 14.5647 4.99729 14.8094 6.19753C15.2369 8.29449 14.9523 10.2849 13.8663 12.1018C11.9903 15.2412 10.0796 18.3571 8.18369 21.4833C8.15523 21.5303 8.12734 21.5784 8.09718 21.6242C7.77104 22.1247 7.21837 22.1277 6.90077 21.62C6.54618 21.0527 6.20467 20.4758 5.85748 19.903C4.29396 17.3219 2.72247 14.7456 1.1692 12.1578C0.149806 10.4583 -0.208204 8.60102 0.114518 6.61608C0.645557 3.34718 2.91713 0.861186 5.99294 0.163204C6.33843 0.0849142 6.69416 0.0529961 7.04478 0C7.34758 0 7.65094 0 7.95374 0ZM10.9072 7.93436C10.9072 5.95001 9.36928 4.3252 7.49385 4.32882C5.62696 4.33243 4.09873 5.9464 4.0919 7.92231C4.08507 9.90605 5.61786 11.5363 7.49385 11.5399C9.36871 11.5435 10.9072 9.9187 10.9072 7.93436Z" fill="#49A558"/>
</svg>
