<svg width="579" height="537" viewBox="0 0 579 537" fill="none" xmlns="http://www.w3.org/2000/svg">
<path d="M501.596 354.16C453.246 467.123 325.615 515.632 225.607 507.359C198.304 505.104 143.359 500.555 100.465 460.016C18.0816 382.158 30.7747 219.402 109.628 123.578C119.782 111.242 190.076 28.5614 299.625 29.6697C379.83 30.4766 436.117 75.7588 442.965 81.3972C451.612 88.523 470.686 105.458 487.872 132.328C528.257 195.449 531.807 283.573 501.596 354.16Z" fill="#E7F5FE"/>
<path d="M114.52 28.1629C114.306 26.17 116.806 25.1006 118.129 26.6074C131.551 41.8506 163.016 86.6565 147.289 158.216C127.554 248.002 143.32 282.961 164.962 305.417C164.962 305.417 133.506 292.828 116.349 257.247C74.223 169.901 118.255 63.5098 114.53 28.1531L114.52 28.1629Z" fill="#9DC8BE"/>
<g style="mix-blend-mode:soft-light">
<path d="M123.031 57.5992C123.906 67.8845 124.587 78.1891 124.888 88.5035C125.239 98.8082 125.278 109.123 124.995 119.427C124.674 129.722 124.159 140.017 123.206 150.264C122.301 160.52 120.959 170.727 119.568 180.973C118.236 191.22 116.845 201.534 116.504 212.014C116.154 222.474 117.039 233.158 119.86 243.346C120.56 245.883 121.319 248.43 122.214 250.89C123.06 253.378 124.023 255.828 125.034 258.258C127.067 263.109 129.431 267.834 132.125 272.364C137.552 281.415 144.341 289.629 152.016 296.765C152.823 297.513 154.087 297.475 154.836 296.668C155.576 295.88 155.546 294.646 154.778 293.887C152.959 292.089 151.17 290.29 149.458 288.405C148.592 287.481 147.765 286.519 146.919 285.566C146.112 284.584 145.266 283.641 144.487 282.64C141.317 278.683 138.428 274.513 135.87 270.148C130.705 261.447 126.814 251.94 124.101 242.199C122.797 237.319 121.864 232.341 121.309 227.315C120.764 222.289 120.599 217.215 120.726 212.121C120.978 201.933 122.282 191.716 123.536 181.459C124.781 171.203 125.958 160.889 126.707 150.536C127.096 145.364 127.388 140.182 127.592 135.001C127.709 132.415 127.777 129.819 127.845 127.224C127.894 124.628 127.923 122.042 127.933 119.447C127.952 109.084 127.661 98.7207 127.038 88.3772C126.367 78.0433 125.423 67.7289 124.081 57.4631C124.042 57.1715 123.77 56.9673 123.478 57.0062C123.196 57.0451 122.992 57.2979 123.011 57.5798L123.031 57.5992Z" fill="white"/>
</g>
<path d="M101.204 335.777C99.833 339.199 95.4074 340.093 92.7715 337.527C78.2012 323.343 40.6374 279.519 46.9304 209.632C52.2508 150.614 49.5177 118.105 47.2611 103.436C46.7845 100.334 50.5487 98.4194 52.7761 100.636C77.3647 125.046 151.072 211.936 101.214 335.777H101.204Z" fill="#CAE7E0"/>
<g style="mix-blend-mode:soft-light">
<path d="M96.2147 335.631C96.1369 335.68 96.0493 335.719 95.9618 335.757C95.2129 336.039 94.3861 335.66 94.1138 334.912C93.8025 334.066 62.5901 249.626 66.2765 167.227C66.3154 166.43 66.9865 165.818 67.7744 165.857C68.5719 165.896 69.1847 166.566 69.1458 167.354C65.4886 249.15 96.487 333.065 96.7983 333.901C97.0414 334.552 96.7788 335.281 96.205 335.631H96.2147Z" fill="white"/>
</g>
<path d="M522.839 265.75C527.845 151.618 431.98 54.7185 308.718 49.3181C185.457 43.9177 81.4761 132.062 76.4704 246.193C71.4647 360.325 167.33 457.224 290.591 462.625C413.852 468.025 517.833 379.881 522.839 265.75Z" fill="url(#paint0_linear_1851_2845)"/>
<path opacity="0.2" d="M287.584 406.578C384.4 406.578 462.885 332.474 462.885 241.061C462.885 149.649 384.4 75.5449 287.584 75.5449C190.768 75.5449 112.283 149.649 112.283 241.061C112.283 332.474 190.768 406.578 287.584 406.578Z" fill="white"/>
<g opacity="0.68">
<g style="mix-blend-mode:soft-light">
<path d="M356.749 256.985C356.691 293.469 354.191 330.022 347.762 365.991C346.137 374.974 344.241 383.917 341.994 392.773C339.737 401.63 337.131 410.398 333.94 418.982C330.721 427.537 326.996 435.975 321.928 443.684C319.38 447.515 316.481 451.179 312.912 454.193C311.132 455.69 309.167 457.022 307.008 457.994C304.858 458.957 302.504 459.569 300.121 459.618C297.738 459.686 295.355 459.219 293.157 458.334C290.959 457.46 288.946 456.186 287.117 454.738C283.46 451.811 280.503 448.185 277.906 444.394C272.751 436.743 268.967 428.325 265.719 419.779C262.489 411.215 259.854 402.446 257.578 393.6C255.302 384.753 253.395 375.81 251.761 366.827C248.483 348.862 246.246 330.722 244.739 312.533C243.241 294.344 242.492 276.088 242.394 257.84C242.346 248.712 242.599 239.593 242.92 230.475C243.26 221.356 243.766 212.247 244.437 203.148C245.789 184.949 247.802 166.79 250.798 148.786C252.306 139.784 254.057 130.821 256.167 121.935C258.278 113.05 260.739 104.242 263.793 95.6196C265.33 91.313 267.003 87.055 268.909 82.8943C270.815 78.7335 272.955 74.67 275.465 70.8203C277.984 66.9901 280.873 63.3348 284.471 60.4087C286.271 58.9602 288.255 57.6964 290.424 56.841C292.593 55.9758 294.937 55.5383 297.271 55.6258C299.606 55.6938 301.911 56.2771 304.041 57.2104C306.171 58.1533 308.126 59.4268 309.926 60.8753C313.515 63.7918 316.491 67.3595 319.127 71.1022C324.37 78.646 328.328 86.9675 331.752 95.4349C335.146 103.922 337.957 112.632 340.399 121.43C342.83 130.228 344.902 139.133 346.682 148.086C353.744 183.929 356.613 220.491 356.72 256.975L356.749 256.985ZM354.045 256.985C354.074 238.806 353.384 220.627 351.876 202.506C350.388 184.395 348.131 166.333 344.766 148.465C343.083 139.531 341.128 130.655 338.804 121.877C336.469 113.099 333.775 104.417 330.488 95.9501C327.18 87.5119 323.348 79.2196 318.261 71.7341C315.703 68.0108 312.824 64.482 309.362 61.6142C307.63 60.1851 305.753 58.9311 303.72 58.0075C301.687 57.0937 299.499 56.5007 297.281 56.4424C295.054 56.3743 292.836 56.8215 290.784 57.6673C288.722 58.5033 286.825 59.7379 285.104 61.1573C281.651 64.0251 278.849 67.6317 276.418 71.4328C273.986 75.2436 271.924 79.2877 270.076 83.429C268.228 87.5703 266.613 91.8088 265.135 96.1057C262.198 104.699 259.854 113.488 257.84 122.344C255.837 131.21 254.193 140.153 252.792 149.126C250.001 167.091 248.191 185.202 247.044 203.352C245.886 221.502 245.487 239.691 245.517 257.87C245.468 276.049 246.081 294.228 247.433 312.358C248.795 330.479 250.886 348.561 254.008 366.467C255.574 375.421 257.402 384.316 259.591 393.133C261.789 401.941 264.328 410.67 267.46 419.177C270.611 427.663 274.297 436.004 279.277 443.529C281.787 447.252 284.637 450.791 288.09 453.59C289.821 454.981 291.698 456.186 293.731 457.012C295.754 457.839 297.933 458.296 300.102 458.227C302.281 458.169 304.42 457.596 306.414 456.682C308.408 455.758 310.247 454.495 311.939 453.056C315.324 450.159 318.106 446.572 320.566 442.819C325.459 435.246 329.087 426.876 332.199 418.38C335.292 409.854 337.812 401.124 339.981 392.307C342.15 383.489 343.949 374.585 345.505 365.631C348.608 347.724 350.67 329.643 352.041 311.522C353.432 293.392 354.074 275.213 354.065 257.024L354.045 256.985Z" fill="white"/>
</g>
<g style="mix-blend-mode:soft-light">
<path d="M448.83 256.985C448.704 280.482 445.679 303.988 439.386 326.639C432.986 349.241 423.327 370.988 410.226 390.508C403.67 400.259 396.248 409.436 387.952 417.767C379.665 426.089 370.493 433.564 360.542 439.825C350.582 446.066 339.815 451.053 328.552 454.446C317.298 457.839 305.539 459.608 293.78 459.627C282.02 459.627 270.261 457.868 258.998 454.475C247.725 451.102 236.957 446.115 226.988 439.883C217.028 433.632 207.836 426.166 199.539 417.845C191.233 409.523 183.792 400.346 177.227 390.596C164.096 371.066 154.428 349.309 147.989 326.697C144.818 315.372 142.474 303.813 140.908 292.157C139.361 280.501 138.574 268.748 138.525 256.985C138.583 245.222 139.371 233.469 140.927 221.813C142.493 210.157 144.857 198.608 148.028 187.283C154.476 164.68 164.164 142.934 177.305 123.433C183.87 113.692 191.311 104.524 199.617 96.2126C207.924 87.9008 217.096 80.4445 227.056 74.2131C237.025 68.0011 247.793 63.0529 259.046 59.6699C270.29 56.2771 282.03 54.5078 293.77 54.4981C305.52 54.5176 317.25 56.2966 328.484 59.6991C339.728 63.0821 350.485 68.04 360.445 74.2617C370.395 80.5028 379.558 87.9689 387.855 96.2807C396.151 104.592 403.573 113.769 410.128 123.51C423.24 143.011 432.908 164.748 439.327 187.341C445.63 209.992 448.674 233.488 448.811 256.985H448.83ZM445.737 256.985C445.708 233.761 442.809 210.507 436.672 188.08C430.505 165.691 421.226 144.081 408.446 124.648C402.055 114.936 394.809 105.788 386.678 97.4667C378.546 89.1646 369.569 81.65 359.755 75.3991C349.921 69.1871 339.309 64.1903 328.173 60.8073C317.045 57.4242 305.432 55.6452 293.789 55.6063C282.156 55.655 270.543 57.4437 259.416 60.8365C248.289 64.2292 237.687 69.2357 227.863 75.4477C218.059 81.6986 209.091 89.2229 200.979 97.525C192.867 105.847 185.631 115.004 179.26 124.706C166.508 144.139 157.239 165.74 151.101 188.119C148.047 199.318 145.83 210.74 144.332 222.25C142.824 233.761 142.085 245.358 142.065 256.975C142.095 268.583 142.844 280.19 144.361 291.69C145.869 303.191 148.086 314.613 151.15 325.812C157.297 348.181 166.576 369.773 179.347 389.186C185.718 398.888 192.964 408.026 201.076 416.338C209.188 424.63 218.146 432.145 227.951 438.376C237.765 444.579 248.376 449.546 259.474 452.939C270.572 456.332 282.166 458.13 293.789 458.189C305.413 458.14 317.007 456.351 328.114 452.968C339.222 449.585 349.843 444.627 359.667 438.435C369.481 432.213 378.459 424.698 386.58 416.406C394.702 408.094 401.958 398.956 408.348 389.254C421.139 369.841 430.437 348.24 436.623 325.861C442.77 303.444 445.679 280.2 445.727 256.975L445.737 256.985Z" fill="white"/>
</g>
<g style="mix-blend-mode:soft-light">
<path d="M112.876 176.803L159.437 176.424L205.998 176.21L299.12 176.035L392.241 176.22L438.802 176.453L485.363 176.861C485.441 176.861 485.499 176.92 485.499 176.997C485.499 177.075 485.441 177.133 485.363 177.133L438.802 177.542L392.241 177.775L299.12 177.96L205.998 177.785L159.437 177.571L112.876 177.192C112.759 177.192 112.672 177.095 112.672 176.988C112.672 176.881 112.759 176.784 112.876 176.784V176.803Z" fill="white"/>
</g>
<g style="mix-blend-mode:soft-light">
<path d="M166.888 98.8568C177.908 98.6818 188.928 98.6041 199.948 98.4777L233.008 98.2638C244.029 98.1763 255.049 98.186 266.069 98.1569L299.129 98.0986L365.24 98.2833L398.301 98.5166C409.321 98.6527 420.341 98.7402 431.361 98.9249C431.439 98.9249 431.497 98.9929 431.497 99.061C431.497 99.1387 431.439 99.1971 431.361 99.1971C420.341 99.3818 409.321 99.4693 398.301 99.6054L365.24 99.8387L299.129 100.023L266.069 99.9651C255.049 99.9359 244.029 99.9456 233.008 99.8581L199.948 99.6443C188.928 99.5179 177.908 99.4401 166.888 99.2651C166.771 99.2651 166.683 99.1679 166.683 99.061C166.683 98.954 166.771 98.8665 166.888 98.8568Z" fill="white"/>
</g>
<g style="mix-blend-mode:soft-light">
<path d="M96.6913 254.739L147.298 254.36L197.905 254.146L299.12 253.971L400.334 254.156L450.941 254.389L501.548 254.798C501.626 254.798 501.684 254.856 501.684 254.934C501.684 255.012 501.626 255.07 501.548 255.07L450.941 255.478L400.334 255.711L299.12 255.896L197.905 255.721L147.298 255.507L96.6913 255.128C96.5746 255.128 96.487 255.031 96.487 254.924C96.487 254.817 96.5746 254.72 96.6913 254.72V254.739Z" fill="white"/>
</g>
<g style="mix-blend-mode:soft-light">
<path d="M112.876 332.685L159.437 332.306L205.998 332.092L299.12 331.917L392.241 332.102L438.802 332.335L485.363 332.744C485.441 332.744 485.499 332.802 485.499 332.88C485.499 332.958 485.441 333.016 485.363 333.016L438.802 333.424L392.241 333.658L299.12 333.842L205.998 333.667L159.437 333.453L112.876 333.074C112.759 333.074 112.672 332.977 112.672 332.87C112.672 332.763 112.759 332.666 112.876 332.666V332.685Z" fill="white"/>
</g>
<g style="mix-blend-mode:soft-light">
<path d="M438.004 411.545H173.55C173.151 411.545 172.84 411.225 172.84 410.836C172.84 410.447 173.161 410.126 173.55 410.126H438.004C438.403 410.126 438.714 410.447 438.714 410.836C438.714 411.225 438.393 411.545 438.004 411.545Z" fill="white"/>
</g>
</g>
<path d="M244.398 157.448C244.126 157.448 243.853 157.312 243.688 157.069C243.416 156.68 243.523 156.135 243.912 155.873C244.7 155.328 245.488 154.784 246.266 154.24C246.655 153.967 247.19 154.055 247.472 154.444C247.744 154.833 247.657 155.367 247.267 155.649C246.489 156.203 245.692 156.757 244.894 157.302C244.748 157.399 244.573 157.448 244.408 157.448H244.398Z" fill="white"/>
<path d="M251.158 152.587C250.895 152.587 250.643 152.47 250.468 152.247C250.176 151.868 250.254 151.323 250.633 151.041C252.082 149.943 253.512 148.825 254.893 147.697C255.263 147.396 255.807 147.454 256.109 147.823C256.41 148.193 256.352 148.737 255.982 149.039C254.582 150.176 253.133 151.313 251.674 152.422C251.518 152.538 251.333 152.597 251.148 152.597L251.158 152.587ZM259.601 145.704C259.358 145.704 259.124 145.607 258.949 145.413C258.638 145.053 258.667 144.508 259.027 144.197C260.398 142.992 261.741 141.767 263.024 140.552C263.365 140.221 263.919 140.241 264.24 140.581C264.571 140.921 264.552 141.475 264.211 141.796C262.908 143.031 261.546 144.275 260.165 145.49C260 145.636 259.795 145.704 259.591 145.704H259.601ZM267.479 138.199C267.265 138.199 267.051 138.122 266.876 137.956C266.536 137.626 266.526 137.081 266.857 136.741C268.111 135.438 269.347 134.097 270.514 132.765C270.825 132.405 271.37 132.376 271.73 132.687C272.09 132.998 272.119 133.543 271.808 133.902C270.621 135.254 269.366 136.615 268.092 137.937C267.927 138.112 267.693 138.199 267.469 138.199H267.479ZM274.667 130.024C274.482 130.024 274.288 129.965 274.132 129.839C273.763 129.538 273.694 129.003 273.996 128.624C275.124 127.214 276.214 125.766 277.254 124.317C277.536 123.928 278.071 123.841 278.46 124.113C278.849 124.395 278.937 124.93 278.665 125.318C277.614 126.786 276.496 128.264 275.358 129.693C275.192 129.907 274.939 130.014 274.687 130.014L274.667 130.024ZM280.999 121.167C280.843 121.167 280.678 121.129 280.532 121.031C280.133 120.779 280.017 120.244 280.27 119.845C281.232 118.329 282.166 116.773 283.042 115.218C283.275 114.8 283.8 114.654 284.219 114.887C284.637 115.121 284.783 115.646 284.549 116.064C283.664 117.648 282.711 119.233 281.729 120.779C281.563 121.041 281.281 121.177 280.999 121.177V121.167ZM286.319 111.67C286.193 111.67 286.067 111.64 285.94 111.582C285.512 111.378 285.337 110.853 285.541 110.425C286.329 108.812 287.068 107.159 287.759 105.506C287.944 105.069 288.44 104.855 288.887 105.04C289.325 105.224 289.539 105.73 289.354 106.167C288.654 107.849 287.895 109.531 287.098 111.174C286.952 111.485 286.64 111.66 286.319 111.66V111.67ZM290.492 101.627C290.395 101.627 290.307 101.608 290.21 101.579C289.763 101.423 289.519 100.927 289.675 100.48C290.259 98.7985 290.803 97.0681 291.28 95.3377C291.406 94.8808 291.883 94.6086 292.34 94.735C292.797 94.8613 293.07 95.3377 292.943 95.7946C292.447 97.5542 291.902 99.3235 291.309 101.034C291.183 101.394 290.852 101.618 290.492 101.618V101.627Z" fill="white"/>
<path d="M293.43 91.1381C293.371 91.1381 293.303 91.1381 293.245 91.1186C292.778 91.0214 292.486 90.5548 292.583 90.0979C292.788 89.1743 292.972 88.2314 293.138 87.3078C293.225 86.8412 293.673 86.5301 294.14 86.6176C294.606 86.7051 294.918 87.1523 294.83 87.6189C294.655 88.5619 294.47 89.5243 294.266 90.4673C294.178 90.8756 293.819 91.1478 293.42 91.1478L293.43 91.1381Z" fill="white"/>
<path d="M300.695 93.9864C300.481 93.9864 300.258 93.9086 300.092 93.7434C299.411 93.0726 298.73 92.3921 298.05 91.7019C297.719 91.3616 297.719 90.8172 298.059 90.4867C298.4 90.1562 298.944 90.1562 299.275 90.4964C299.946 91.1769 300.627 91.8574 301.298 92.5185C301.639 92.849 301.639 93.4031 301.298 93.7337C301.133 93.9086 300.909 93.9864 300.686 93.9864H300.695Z" fill="white"/>
<path d="M367.166 128.109C367.166 128.109 367.108 128.109 367.079 128.109C365.26 127.934 363.431 127.7 361.622 127.418C361.155 127.341 360.834 126.903 360.902 126.436C360.98 125.97 361.418 125.649 361.885 125.717C363.655 125.989 365.454 126.223 367.234 126.388C367.711 126.436 368.061 126.854 368.012 127.331C367.974 127.778 367.594 128.109 367.157 128.109H367.166ZM356.418 126.427C356.36 126.427 356.292 126.427 356.234 126.407C354.463 126.018 352.664 125.571 350.903 125.075C350.446 124.949 350.174 124.473 350.31 124.016C350.437 123.559 350.913 123.287 351.38 123.423C353.111 123.909 354.872 124.356 356.613 124.735C357.08 124.832 357.372 125.299 357.274 125.766C357.187 126.164 356.827 126.446 356.428 126.446L356.418 126.427ZM345.943 123.471C345.846 123.471 345.758 123.452 345.661 123.423C343.949 122.83 342.218 122.178 340.516 121.479C340.078 121.294 339.864 120.798 340.049 120.351C340.233 119.913 340.73 119.7 341.177 119.884C342.85 120.574 344.542 121.216 346.225 121.79C346.672 121.945 346.916 122.441 346.76 122.888C346.634 123.248 346.303 123.471 345.943 123.471ZM335.857 119.34C335.73 119.34 335.604 119.311 335.487 119.252C333.853 118.475 332.209 117.639 330.595 116.773C330.176 116.55 330.021 116.025 330.244 115.607C330.468 115.189 330.993 115.033 331.412 115.257C332.997 116.112 334.621 116.939 336.226 117.697C336.654 117.901 336.839 118.416 336.635 118.844C336.489 119.155 336.178 119.34 335.857 119.34ZM326.276 114.178C326.12 114.178 325.974 114.139 325.829 114.051C324.282 113.118 322.726 112.127 321.199 111.106C320.8 110.843 320.693 110.309 320.965 109.91C321.228 109.511 321.763 109.405 322.162 109.677C323.669 110.678 325.206 111.66 326.723 112.574C327.132 112.817 327.258 113.351 327.015 113.76C326.85 114.032 326.568 114.178 326.276 114.178ZM317.221 108.131C317.046 108.131 316.861 108.073 316.715 107.966C315.266 106.896 313.797 105.778 312.357 104.641C311.988 104.349 311.92 103.805 312.221 103.426C312.523 103.056 313.058 102.988 313.437 103.29C314.857 104.417 316.297 105.526 317.736 106.576C318.125 106.858 318.203 107.392 317.921 107.781C317.756 108.014 317.493 108.131 317.221 108.131ZM308.7 101.355C308.506 101.355 308.301 101.287 308.136 101.151C306.774 99.9845 305.403 98.7596 304.051 97.5153C303.701 97.1945 303.681 96.6501 304.002 96.3001C304.323 95.9501 304.868 95.9307 305.218 96.2515C306.56 97.4861 307.922 98.7013 309.264 99.8484C309.624 100.16 309.663 100.704 309.352 101.064C309.177 101.258 308.943 101.365 308.7 101.365V101.355Z" fill="white"/>
<path d="M375.482 128.517C374.519 128.517 373.547 128.497 372.584 128.458C372.107 128.439 371.738 128.04 371.747 127.564C371.767 127.088 372.146 126.718 372.642 126.728C373.586 126.757 374.549 126.777 375.492 126.786C375.969 126.786 376.358 127.175 376.348 127.652C376.348 128.128 375.959 128.507 375.482 128.507V128.517Z" fill="white"/>
<path d="M375.443 128.361C375.123 128.361 374.811 128.177 374.665 127.865C374.257 127 373.848 126.125 373.45 125.25C373.255 124.813 373.45 124.307 373.878 124.103C374.306 123.899 374.821 124.103 375.025 124.531C375.424 125.406 375.833 126.271 376.231 127.136C376.436 127.564 376.251 128.079 375.823 128.284C375.706 128.342 375.58 128.361 375.453 128.361H375.443Z" fill="white"/>
<path d="M452.789 211.362C452.682 211.362 452.565 211.343 452.458 211.294C450.659 210.556 448.859 209.758 447.108 208.932C446.68 208.728 446.496 208.213 446.7 207.785C446.904 207.357 447.42 207.173 447.848 207.377C449.579 208.193 451.349 208.981 453.119 209.71C453.557 209.895 453.771 210.39 453.586 210.838C453.45 211.168 453.129 211.372 452.789 211.372V211.362ZM442.294 206.395C442.158 206.395 442.012 206.366 441.885 206.288C440.183 205.374 438.471 204.392 436.808 203.381C436.4 203.138 436.273 202.604 436.516 202.195C436.759 201.787 437.294 201.661 437.703 201.904C439.347 202.905 441.029 203.867 442.712 204.762C443.13 204.985 443.286 205.51 443.062 205.928C442.907 206.22 442.605 206.385 442.304 206.385L442.294 206.395ZM432.353 200.387C432.188 200.387 432.023 200.338 431.867 200.241C430.272 199.162 428.667 198.025 427.101 196.848C426.722 196.567 426.644 196.022 426.926 195.643C427.208 195.264 427.753 195.186 428.132 195.468C429.669 196.615 431.254 197.743 432.83 198.812C433.229 199.075 433.326 199.619 433.063 200.008C432.898 200.251 432.626 200.387 432.344 200.387H432.353ZM423.055 193.436C422.86 193.436 422.666 193.368 422.51 193.242C421.022 192.017 419.534 190.734 418.075 189.431C417.725 189.11 417.695 188.566 418.007 188.216C418.328 187.866 418.872 187.837 419.223 188.148C420.652 189.441 422.131 190.705 423.599 191.91C423.969 192.211 424.018 192.756 423.716 193.125C423.541 193.329 423.298 193.436 423.045 193.436H423.055ZM414.418 185.679C414.204 185.679 413.98 185.601 413.815 185.436C412.443 184.094 411.062 182.694 409.72 181.265C409.389 180.915 409.408 180.371 409.759 180.05C410.109 179.719 410.653 179.739 410.974 180.089C412.297 181.498 413.659 182.879 415.021 184.211C415.361 184.541 415.371 185.086 415.03 185.426C414.865 185.601 414.641 185.688 414.418 185.688V185.679ZM406.452 177.231C406.208 177.231 405.975 177.133 405.8 176.939C404.535 175.491 403.271 173.993 402.036 172.477C401.734 172.108 401.793 171.563 402.162 171.262C402.532 170.96 403.076 171.019 403.378 171.388C404.594 172.885 405.849 174.373 407.103 175.802C407.415 176.161 407.376 176.706 407.025 177.017C406.86 177.163 406.656 177.231 406.461 177.231H406.452ZM399.128 168.219C398.865 168.219 398.612 168.102 398.437 167.879C397.28 166.352 396.112 164.768 394.984 163.174C394.712 162.785 394.799 162.25 395.188 161.968C395.577 161.696 396.112 161.783 396.394 162.172C397.513 163.747 398.661 165.322 399.808 166.829C400.1 167.208 400.022 167.752 399.643 168.034C399.487 168.151 399.303 168.209 399.128 168.209V168.219ZM392.407 158.75C392.124 158.75 391.852 158.614 391.687 158.361C390.627 156.767 389.566 155.124 388.526 153.462C388.273 153.054 388.399 152.529 388.798 152.276C389.207 152.023 389.732 152.149 389.985 152.548C391.016 154.191 392.066 155.824 393.117 157.409C393.379 157.807 393.272 158.342 392.873 158.604C392.727 158.702 392.562 158.75 392.397 158.75H392.407ZM386.25 148.912C385.958 148.912 385.666 148.757 385.501 148.485C384.528 146.832 383.555 145.131 382.612 143.429C382.378 143.011 382.534 142.486 382.943 142.253C383.361 142.02 383.886 142.175 384.12 142.593C385.063 144.285 386.026 145.976 386.989 147.619C387.232 148.028 387.096 148.562 386.687 148.796C386.551 148.873 386.396 148.912 386.25 148.912ZM380.618 138.753C380.307 138.753 380.005 138.588 379.85 138.287C378.955 136.586 378.06 134.836 377.204 133.096C376.99 132.668 377.165 132.153 377.593 131.939C378.021 131.725 378.536 131.9 378.75 132.328C379.606 134.058 380.492 135.788 381.386 137.48C381.61 137.898 381.445 138.423 381.026 138.646C380.9 138.715 380.764 138.744 380.628 138.744L380.618 138.753Z" fill="white"/>
<path d="M460.969 214.357C460.881 214.357 460.794 214.347 460.706 214.318C459.782 214.016 458.868 213.715 457.963 213.394C457.516 213.239 457.273 212.743 457.438 212.296C457.594 211.849 458.09 211.606 458.537 211.771C459.432 212.082 460.337 212.393 461.241 212.685C461.698 212.83 461.941 213.316 461.796 213.773C461.679 214.143 461.338 214.376 460.978 214.376L460.969 214.357Z" fill="white"/>
<path d="M274.171 435.139L175.807 427.654V150.983L274.171 143.702V435.139Z" fill="url(#paint1_linear_1851_2845)"/>
<path d="M185.329 251.872V369.452H183.403V399.549H274.171V251.872H185.329Z" fill="#EFC6A3"/>
<mask id="mask0_1851_2845" style="mask-type:luminance" maskUnits="userSpaceOnUse" x="183" y="156" width="92" height="266">
<path d="M183.403 415.56V163.096L274.171 156.991V421.84L183.403 415.56Z" fill="white"/>
</mask>
<g mask="url(#mask0_1851_2845)">
<path d="M303.623 123.539C303.623 123.539 303.72 187.185 317.999 216.408C332.277 245.621 337.656 274.065 326.908 290.728C316.16 307.381 274.181 281.969 274.181 281.969C274.181 281.969 254.378 295.939 245.419 325.822C236.461 355.715 178.258 380.612 165.72 372.193C153.183 363.765 158.552 138.199 158.552 138.199L303.623 123.539Z" fill="#FEDDBE"/>
<path d="M163.026 389.342C163.026 389.342 198.294 405.781 224.984 390.586C251.674 375.392 274.171 348.094 274.171 348.094C274.171 348.094 301.318 364.717 315.898 363.794C330.478 362.87 341.264 316.101 341.264 316.101C341.264 316.101 365.406 304.114 376.144 279.782C386.892 255.459 419.874 228.968 437.936 223.417C455.999 217.866 466.591 228.229 466.591 228.229L462.116 440.262L183.403 454.854L163.026 389.342Z" fill="#FEDDBE"/>
</g>
<path d="M341.265 419.235H455.998L455.998 159.985H341.265V419.235Z" fill="url(#paint2_linear_1851_2845)"/>
<path d="M446.7 407.394V171.651H341.274L309.634 260.669L341.274 407.394H446.7Z" fill="#EFC6A3"/>
<mask id="mask1_1851_2845" style="mask-type:luminance" maskUnits="userSpaceOnUse" x="341" y="171" width="106" height="237">
<path d="M446.7 407.394V171.651H341.274V407.394H446.7Z" fill="white"/>
</mask>
<g mask="url(#mask1_1851_2845)">
<path d="M163.026 389.342C163.026 389.342 198.294 405.781 224.984 390.586C251.674 375.392 274.171 348.094 274.171 348.094C274.171 348.094 301.318 364.717 315.898 363.794C330.478 362.87 341.264 316.101 341.264 316.101C341.264 316.101 365.406 304.114 376.144 279.782C386.892 255.459 419.874 228.968 437.936 223.417C455.999 217.866 466.591 228.229 466.591 228.229L462.116 440.262L183.403 454.854L163.026 389.342Z" fill="#FEDDBE"/>
<path d="M321.87 131.453C321.87 131.453 312.357 175.063 321.87 186.622C331.382 198.18 338.629 231.262 341.274 240.235C343.92 249.198 364.511 268.826 375.259 250.958C386.006 233.09 402.123 220.053 410.187 214.046C418.25 208.028 469.285 201.855 471.979 197.335C474.664 192.814 476.453 141.534 476.453 141.534L321.88 131.462L321.87 131.453Z" fill="#FEDDBE"/>
</g>
<path d="M341.274 419.235L274.171 435.139V143.702L341.274 159.985V171.651L328.708 196.567L324.875 402.466L341.274 407.394V419.235Z" fill="url(#paint3_linear_1851_2845)"/>
<path d="M341.274 367.906V174.674L317.649 166.595L305.928 164.01L303.905 163.767V281.658H274.171V367.906H341.274Z" fill="#EFC6A3"/>
<mask id="mask2_1851_2845" style="mask-type:luminance" maskUnits="userSpaceOnUse" x="274" y="156" width="68" height="266">
<path d="M274.171 421.84V156.991L341.274 171.651V407.414L274.171 421.84Z" fill="white"/>
</mask>
<g mask="url(#mask2_1851_2845)">
<path d="M303.623 123.539C303.623 123.539 303.72 187.185 317.999 216.408C332.277 245.621 337.656 274.065 326.908 290.728C316.16 307.381 274.181 281.969 274.181 281.969C274.181 281.969 254.378 295.939 245.419 325.822C236.461 355.715 178.258 380.612 165.72 372.193C153.183 363.765 158.552 138.199 158.552 138.199L303.623 123.539Z" fill="#FEDDBE"/>
<path d="M163.026 389.342C163.026 389.342 198.294 405.781 224.984 390.586C251.674 375.392 274.171 348.094 274.171 348.094C274.171 348.094 301.318 364.717 315.898 363.794C330.478 362.87 341.265 316.101 341.265 316.101C341.265 316.101 365.406 304.114 376.144 279.782C386.892 255.459 419.874 228.968 437.936 223.417C455.999 217.866 466.591 228.229 466.591 228.229L462.117 440.262L183.403 454.854L163.026 389.342Z" fill="#F4D2B5"/>
<path d="M321.87 131.453C321.87 131.453 312.357 175.063 321.87 186.622C331.382 198.18 338.629 231.262 341.274 240.235C343.92 249.198 364.511 268.826 375.259 250.958C386.006 233.09 402.123 220.053 410.187 214.046C418.25 208.028 469.285 201.855 471.979 197.335C474.664 192.814 476.453 141.534 476.453 141.534L321.88 131.462L321.87 131.453Z" fill="#F4D2B5"/>
</g>
<path opacity="0.53" d="M394.877 171.651H393.087V419.235H394.877V171.651Z" fill="url(#paint4_linear_1851_2845)"/>
<path opacity="0.53" d="M229.682 160.043H227.892V419.235H229.682V160.043Z" fill="url(#paint5_linear_1851_2845)"/>
<path opacity="0.53" d="M446.7 254.506H341.167L341.06 254.487L274.113 238.573L183.481 246.223L183.335 244.444L274.239 236.764L274.385 236.803L341.371 252.717H446.7V254.506Z" fill="url(#paint6_linear_1851_2845)"/>
<path d="M203.304 299.924C202.671 299.924 202.039 299.633 201.631 299.079C200.95 298.155 201.144 296.852 202.059 296.172C202.059 296.172 202.866 295.579 204.267 294.519C205.181 293.829 206.494 294.014 207.184 294.928C207.875 295.841 207.69 297.154 206.776 297.844C205.356 298.913 204.539 299.516 204.539 299.516C204.169 299.788 203.732 299.924 203.304 299.924Z" fill="url(#paint7_linear_1851_2845)"/>
<path d="M381.552 308.032C380.316 308.032 378.906 307.857 377.223 307.497C376.095 307.254 375.385 306.146 375.628 305.028C375.871 303.9 376.98 303.191 378.109 303.434C380.122 303.871 381.717 303.988 382.67 303.784C383.779 303.531 384.878 304.202 385.16 305.31C385.442 306.428 384.761 307.556 383.643 307.838C383.623 307.838 383.594 307.847 383.575 307.857C382.962 307.993 382.281 308.061 381.542 308.061L381.552 308.032ZM388.351 306.107C387.572 306.107 386.823 305.67 386.473 304.921C385.977 303.881 386.425 302.646 387.456 302.151C388.954 301.441 390.393 300.547 391.755 299.487C392.659 298.777 393.972 298.943 394.673 299.847C395.383 300.751 395.217 302.063 394.313 302.763C392.718 304.007 391.016 305.057 389.245 305.903C388.954 306.039 388.652 306.107 388.351 306.107ZM372.35 306.029C372.127 306.029 371.903 305.991 371.679 305.922C370.065 305.378 368.285 304.717 366.388 303.959C365.318 303.531 364.803 302.316 365.231 301.256C365.659 300.187 366.874 299.672 367.935 300.099C369.763 300.828 371.465 301.46 373.012 301.985C374.101 302.355 374.685 303.531 374.315 304.62C374.023 305.485 373.216 306.039 372.341 306.039L372.35 306.029ZM362.07 301.956C361.787 301.956 361.505 301.898 361.233 301.781C359.618 301.071 357.916 300.294 356.156 299.458C355.115 298.972 354.668 297.727 355.164 296.687C355.65 295.647 356.895 295.2 357.936 295.696C359.667 296.512 361.34 297.27 362.925 297.97C363.976 298.437 364.453 299.662 363.986 300.712C363.645 301.49 362.877 301.956 362.079 301.956H362.07ZM397.027 299.409C396.54 299.409 396.054 299.244 395.655 298.894C394.79 298.136 394.702 296.823 395.461 295.958C396.569 294.694 397.6 293.294 398.544 291.797C399.157 290.825 400.441 290.524 401.413 291.136C402.386 291.749 402.687 293.032 402.075 294.004C401.014 295.696 399.847 297.27 398.593 298.709C398.184 299.176 397.6 299.419 397.027 299.419V299.409ZM352.051 297.251C351.74 297.251 351.429 297.183 351.127 297.037C349.522 296.25 347.849 295.404 346.157 294.539C345.136 294.014 344.727 292.76 345.252 291.739C345.778 290.718 347.032 290.31 348.054 290.835C349.727 291.69 351.38 292.526 352.966 293.304C353.997 293.81 354.415 295.064 353.909 296.094C353.549 296.833 352.81 297.251 352.041 297.251H352.051ZM209.908 294.918C209.285 294.918 208.663 294.636 208.254 294.101C207.554 293.187 207.719 291.885 208.634 291.185C209.947 290.174 211.406 289.046 212.991 287.812C213.896 287.102 215.209 287.267 215.909 288.171C216.609 289.075 216.454 290.388 215.549 291.088C213.964 292.332 212.485 293.469 211.163 294.48C210.783 294.772 210.336 294.908 209.898 294.908L209.908 294.918ZM342.198 292.215C341.868 292.215 341.537 292.138 341.226 291.972C339.592 291.117 337.957 290.242 336.323 289.357C335.312 288.813 334.933 287.549 335.487 286.538C336.032 285.527 337.296 285.148 338.308 285.702C339.922 286.577 341.547 287.442 343.171 288.298C344.192 288.832 344.581 290.096 344.037 291.107C343.667 291.817 342.937 292.215 342.198 292.215ZM218.623 288.113C218.01 288.113 217.407 287.841 216.989 287.325C216.269 286.431 216.425 285.119 217.32 284.399C218.71 283.301 220.15 282.144 221.619 280.958C222.513 280.239 223.827 280.375 224.546 281.269C225.266 282.163 225.13 283.476 224.235 284.195C222.757 285.391 221.307 286.557 219.907 287.666C219.527 287.967 219.07 288.123 218.613 288.123L218.623 288.113ZM332.472 286.956C332.131 286.956 331.781 286.869 331.47 286.694C329.836 285.789 328.221 284.895 326.626 283.991C325.624 283.427 325.274 282.154 325.838 281.152C326.402 280.151 327.677 279.801 328.669 280.365C330.254 281.259 331.869 282.154 333.483 283.048C334.485 283.602 334.855 284.866 334.3 285.877C333.921 286.567 333.211 286.956 332.481 286.956H332.472ZM322.833 281.532C322.483 281.532 322.123 281.444 321.802 281.259C320.168 280.316 318.563 279.393 316.997 278.489C316.005 277.905 315.664 276.632 316.248 275.64C316.832 274.649 318.106 274.308 319.098 274.892C320.654 275.796 322.249 276.719 323.873 277.653C324.875 278.226 325.216 279.5 324.642 280.491C324.253 281.162 323.553 281.541 322.833 281.541V281.532ZM227.202 281.152C226.599 281.152 226.005 280.9 225.597 280.394C224.867 279.509 224.984 278.197 225.879 277.468C227.328 276.272 228.748 275.086 230.1 273.939C230.976 273.2 232.289 273.307 233.038 274.182C233.777 275.057 233.67 276.369 232.794 277.118C231.433 278.275 229.993 279.471 228.534 280.676C228.145 280.997 227.678 281.152 227.211 281.152H227.202ZM313.272 275.961C312.912 275.961 312.542 275.864 312.211 275.67C310.548 274.688 308.953 273.735 307.445 272.821C306.463 272.228 306.142 270.945 306.735 269.963C307.329 268.981 308.613 268.66 309.595 269.253C311.093 270.157 312.678 271.1 314.332 272.082C315.324 272.666 315.645 273.949 315.061 274.931C314.672 275.582 313.982 275.951 313.272 275.951V275.961ZM235.635 274.007C235.051 274.007 234.477 273.764 234.069 273.297C233.31 272.432 233.397 271.12 234.263 270.362C235.703 269.108 237.074 267.883 238.368 266.716C239.224 265.948 240.537 266.006 241.305 266.862C242.073 267.717 242.015 269.03 241.159 269.798C239.856 270.984 238.455 272.218 236.996 273.492C236.597 273.832 236.111 274.007 235.625 274.007H235.635ZM303.798 270.245C303.428 270.245 303.049 270.148 302.709 269.934C300.977 268.874 299.392 267.883 297.991 266.988C297.019 266.376 296.737 265.083 297.349 264.12C297.962 263.148 299.256 262.866 300.219 263.479C301.609 264.364 303.175 265.336 304.887 266.395C305.87 266.998 306.171 268.281 305.568 269.253C305.179 269.895 304.489 270.245 303.798 270.245ZM243.815 266.58C243.26 266.58 242.715 266.366 242.307 265.938C241.509 265.102 241.548 263.79 242.375 262.993C243.776 261.651 245.089 260.368 246.256 259.172C247.063 258.346 248.376 258.336 249.203 259.133C250.03 259.94 250.04 261.253 249.242 262.079C248.036 263.314 246.694 264.636 245.254 266.006C244.855 266.386 244.33 266.58 243.815 266.58ZM294.47 264.286C294.071 264.286 293.663 264.169 293.303 263.926C292.418 263.323 291.513 262.711 290.589 262.079C289.977 261.661 289.354 261.233 288.732 260.805C287.778 260.154 287.535 258.861 288.187 257.918C288.839 256.966 290.132 256.723 291.076 257.374C291.708 257.802 292.33 258.229 292.943 258.647C293.857 259.27 294.752 259.892 295.628 260.485C296.581 261.126 296.824 262.419 296.182 263.372C295.783 263.965 295.122 264.286 294.46 264.286H294.47ZM251.499 258.647C251.012 258.647 250.536 258.482 250.137 258.142C249.271 257.393 249.174 256.081 249.923 255.206C250.516 254.516 251.071 253.845 251.557 253.223C252.218 252.377 252.928 251.59 253.648 250.89C254.475 250.093 255.798 250.112 256.595 250.938C257.393 251.765 257.373 253.087 256.547 253.884C255.963 254.448 255.389 255.089 254.844 255.789C254.309 256.47 253.716 257.189 253.074 257.928C252.666 258.404 252.082 258.647 251.499 258.647ZM285.308 258.113C284.919 258.113 284.53 258.006 284.18 257.782C282.497 256.703 280.989 255.78 279.559 254.973C278.558 254.409 278.207 253.135 278.772 252.134C279.336 251.133 280.61 250.783 281.612 251.347C283.11 252.192 284.685 253.145 286.436 254.273C287.399 254.895 287.681 256.178 287.059 257.15C286.66 257.772 285.989 258.103 285.308 258.103V258.113ZM275.669 252.746C275.387 252.746 275.105 252.688 274.832 252.571C273.111 251.813 271.477 251.23 269.959 250.851C268.841 250.569 268.17 249.431 268.452 248.323C268.734 247.205 269.872 246.534 270.981 246.816C272.722 247.264 274.58 247.915 276.505 248.77C277.556 249.237 278.032 250.462 277.566 251.512C277.225 252.29 276.457 252.756 275.659 252.756L275.669 252.746ZM259.649 251.385C258.842 251.385 258.074 250.919 257.733 250.131C257.276 249.081 257.762 247.857 258.813 247.4C260.709 246.573 262.781 246.136 264.95 246.078C266.098 246.048 267.051 246.953 267.08 248.109C267.11 249.256 266.205 250.209 265.048 250.238C263.384 250.277 261.886 250.598 260.457 251.22C260.184 251.337 259.902 251.395 259.63 251.395L259.649 251.385Z" fill="url(#paint8_linear_1851_2845)"/>
<path d="M402.794 290.3C402.512 290.3 402.23 290.242 401.948 290.125C400.898 289.659 400.421 288.434 400.888 287.384C401.52 285.964 401.812 285.041 401.812 285.031C402.152 283.933 403.32 283.32 404.419 283.66C405.518 284.001 406.131 285.167 405.79 286.256C405.781 286.305 405.43 287.403 404.691 289.066C404.351 289.843 403.582 290.3 402.785 290.3H402.794Z" fill="url(#paint9_linear_1851_2845)"/>
<path d="M268.024 174.305C268.024 199.726 232.386 246.116 216.259 265.812C212.242 270.712 204.743 270.712 200.736 265.812C184.609 246.116 148.971 199.726 148.971 174.305C148.971 141.446 175.622 114.81 208.498 114.81C241.373 114.81 268.024 141.446 268.024 174.305Z" fill="#E45B4F"/>
<path d="M222.882 204.215C239.406 196.277 246.364 176.453 238.422 159.937C230.48 143.422 210.646 136.468 194.121 144.406C177.597 152.344 170.639 172.167 178.581 188.683C186.523 205.199 206.357 212.152 222.882 204.215Z" fill="white"/>
<g opacity="0.14">
<path d="M208.235 241.382C212.009 216.525 228.437 208.572 225.616 185.095C222.368 158.031 198.382 150.818 197.808 126.728C197.711 122.849 198.246 119.106 199.238 115.529C170.759 119.972 148.971 144.596 148.971 174.305C148.971 199.726 184.609 246.116 200.736 265.812C203.099 268.699 206.669 269.885 210.025 269.37C207.136 258.482 207.048 249.188 208.235 241.382Z" fill="url(#paint10_linear_1851_2845)"/>
</g>
<path d="M208.498 306.914C215.218 306.914 220.665 301.469 220.665 294.753C220.665 288.036 215.218 282.591 208.498 282.591C201.777 282.591 196.33 288.036 196.33 294.753C196.33 301.469 201.777 306.914 208.498 306.914Z" fill="#054F7D"/>
<path d="M420.857 224.195C420.857 233.615 407.648 250.822 401.666 258.113C400.178 259.931 397.396 259.931 395.908 258.113C389.926 250.812 376.718 233.615 376.718 224.195C376.718 212.014 386.6 202.137 398.787 202.137C410.974 202.137 420.857 212.014 420.857 224.195Z" fill="#E45B4F"/>
<path d="M410.954 225.886C411.896 219.16 407.204 212.943 400.475 212.002C393.745 211.06 387.526 215.749 386.583 222.475C385.641 229.202 390.333 235.418 397.063 236.359C403.792 237.301 410.012 232.612 410.954 225.886Z" fill="white"/>
<g opacity="0.09">
<path d="M398.69 249.052C400.09 239.836 406.179 236.891 405.129 228.19C403.923 218.158 395.033 215.484 394.819 206.55C394.78 205.112 394.984 203.721 395.354 202.399C384.8 204.052 376.718 213.171 376.718 224.185C376.718 233.605 389.926 250.812 395.908 258.103C396.783 259.172 398.106 259.61 399.351 259.425C398.281 255.391 398.252 251.94 398.69 249.052Z" fill="url(#paint11_linear_1851_2845)"/>
</g>
<path d="M283.956 333.259C283.956 333.259 278.344 330.916 277.507 329.604C276.671 328.291 273.023 322.75 271.739 322.536C266.934 321.729 253.813 322.216 249.398 324.588C246.985 325.881 249.524 335.466 251.742 337.721C253.959 339.967 269.775 340.433 272.333 339.918C274.891 339.403 276.778 336.778 276.778 336.778L283.071 338.528L283.946 333.269L283.956 333.259Z" fill="#FFC800"/>
<path d="M285.502 326.192C285.502 326.192 281.242 326.814 280.211 327.708C279.18 328.602 275.951 335.748 276.155 338.227C276.359 340.706 278.976 343.243 278.976 343.243L285.512 326.201L285.502 326.192Z" fill="#FFC800"/>
<path opacity="0.1" d="M285.502 326.192C285.502 326.192 281.242 326.814 280.211 327.708C279.18 328.602 275.951 335.748 276.155 338.227C276.359 340.706 278.976 343.243 278.976 343.243L285.512 326.201L285.502 326.192Z" fill="black"/>
<path d="M493.582 333.259C493.582 333.259 499.194 330.916 500.03 329.604C500.867 328.291 504.514 322.75 505.798 322.536C510.603 321.729 523.724 322.216 528.14 324.588C530.552 325.881 528.014 335.466 525.796 337.721C523.578 339.967 507.763 340.433 505.205 339.918C502.647 339.403 500.76 336.778 500.76 336.778L494.467 338.528L493.591 333.269L493.582 333.259Z" fill="#FFC800"/>
<path d="M492.035 326.192C492.035 326.192 496.295 326.814 497.326 327.708C498.357 328.602 501.587 335.748 501.382 338.227C501.178 340.696 498.562 343.243 498.562 343.243L492.025 326.201L492.035 326.192Z" fill="#FFC800"/>
<path opacity="0.1" d="M492.035 326.192C492.035 326.192 496.295 326.814 497.326 327.708C498.357 328.602 501.587 335.748 501.382 338.227C501.178 340.696 498.562 343.243 498.562 343.243L492.025 326.201L492.035 326.192Z" fill="black"/>
<path d="M280.97 390.644H262.519C256.475 390.644 251.576 395.541 251.576 401.581V463.798C251.576 469.838 256.475 474.734 262.519 474.734H280.97C287.013 474.734 291.912 469.838 291.912 463.798V401.581C291.912 395.541 287.013 390.644 280.97 390.644Z" fill="#1A2E35"/>
<path d="M264.911 366.351C264.911 366.351 255.564 371.114 253.356 375.518C251.158 379.912 253.356 425.36 253.356 428.849C253.356 432.339 260.126 455.058 261.42 457.44C262.703 459.822 280.493 462.573 280.493 462.573L264.911 366.36V366.351Z" fill="#FFC800"/>
<path opacity="0.1" d="M264.911 366.351C264.911 366.351 255.564 371.114 253.356 375.518C251.158 379.912 253.356 425.36 253.356 428.849C253.356 432.339 260.126 455.058 261.42 457.44C262.703 459.822 280.493 462.573 280.493 462.573L264.911 366.36V366.351Z" fill="black"/>
<path d="M496.578 474.744H515.029C521.072 474.744 525.971 469.848 525.971 463.808V401.591C525.971 395.551 521.072 390.654 515.029 390.654H496.578C490.534 390.654 485.635 395.551 485.635 401.591V463.808C485.635 469.848 490.534 474.744 496.578 474.744Z" fill="#1A2E35"/>
<path d="M512.626 366.351C512.626 366.351 521.973 371.114 524.181 375.518C526.379 379.912 524.181 425.36 524.181 428.849C524.181 432.339 517.412 455.058 516.118 457.44C514.834 459.822 497.044 462.573 497.044 462.573L512.626 366.36V366.351Z" fill="#FFC800"/>
<path opacity="0.1" d="M512.626 366.351C512.626 366.351 521.973 371.114 524.181 375.518C526.379 379.912 524.181 425.36 524.181 428.849C524.181 432.339 517.412 455.058 516.118 457.44C514.834 459.822 497.044 462.573 497.044 462.573L512.626 366.36V366.351Z" fill="black"/>
<path d="M516.264 441.944C516.176 443.13 512.14 460.182 510.486 461.912C508.843 463.652 475.831 465.032 473.817 465.032C471.804 465.032 465.482 461.465 464.285 461.193C463.099 460.911 396.871 461.105 388.779 461.105C380.686 461.105 314.458 460.911 313.272 461.193C312.085 461.465 305.753 465.032 303.74 465.032C301.726 465.032 268.724 463.662 267.071 461.912C265.427 460.172 261.39 443.13 261.293 441.944C261.196 440.758 262.48 436.539 262.48 435.625C262.48 434.711 261.497 370.871 261.77 369.627C262.042 368.392 264.658 359.73 265.826 357.883C266.993 356.027 277.449 342.835 277.721 342.008C284.15 322.731 302.125 294.529 304.878 292.05C307.62 289.581 311.268 288.064 314.021 287.714C316.763 287.374 353.967 286.003 388.769 286.003C423.57 286.003 460.774 287.374 463.517 287.714C466.27 288.064 469.907 289.571 472.66 292.05C475.403 294.529 493.387 322.731 499.816 342.008C500.089 342.835 510.545 356.027 511.712 357.883C512.879 359.73 515.496 368.402 515.768 369.627C516.05 370.871 515.068 434.711 515.068 435.625C515.068 436.539 516.352 440.758 516.254 441.944H516.264Z" fill="#FDC939"/>
<path opacity="0.1" d="M508.259 430.58C508.259 431.678 506.771 440.233 505.798 440.476C479.245 447.077 415.458 452.628 388.769 452.191C362.079 452.628 298.293 447.087 271.739 440.476C270.776 440.233 269.279 431.678 269.279 430.58C269.279 429.481 270.378 417.3 271.739 416.931C273.101 416.562 301.191 421.607 324.807 424.747C357.741 429.122 388.759 428.704 388.759 428.704C388.759 428.704 419.777 429.122 452.721 424.747C476.337 421.617 504.427 416.562 505.788 416.931C507.14 417.291 508.249 429.481 508.249 430.58H508.259Z" fill="black"/>
<path opacity="0.5" d="M482.309 420.363L473.273 446.066C443.831 449.906 407.327 452.492 388.769 452.181C370.211 452.482 333.717 449.896 304.275 446.066L295.239 420.363C304.372 421.801 314.983 423.435 324.817 424.747C357.751 429.122 388.779 428.704 388.779 428.704C388.779 428.704 419.796 429.122 452.74 424.747C462.574 423.444 473.195 421.801 482.328 420.363H482.309Z" fill="white"/>
<path d="M452.73 424.747C452.867 425.36 447.789 435.441 443.957 441.448C442.819 443.237 437.324 447.359 436.049 447.631C434.756 447.903 418.94 452.191 388.779 452.191C358.617 452.191 342.792 447.903 341.508 447.631C340.233 447.359 334.738 443.237 333.6 441.448C329.768 435.45 324.691 425.36 324.827 424.747C324.943 424.135 343.871 428.704 388.779 428.704C433.686 428.704 452.623 424.135 452.74 424.747H452.73Z" fill="#1A2E35"/>
<path d="M285.485 435.592C288.329 434.415 289.679 431.156 288.501 428.314C287.323 425.472 284.063 424.122 281.219 425.299C278.375 426.477 277.025 429.735 278.203 432.577C279.381 435.42 282.641 436.769 285.485 435.592Z" fill="white"/>
<path d="M279.414 426.507C282.915 422.861 289.461 425.291 289.626 430.444C289.86 433.846 286.747 436.957 283.343 436.724C278.188 436.559 275.756 430.006 279.404 426.507H279.414ZM279.414 426.507C277.293 428.538 277.449 432.291 279.705 434.089C284.627 438.046 290.959 431.717 287 426.798C285.201 424.543 281.446 424.387 279.414 426.507Z" fill="#DCDCDC"/>
<path d="M494.99 435.801C497.97 435.03 499.76 431.991 498.989 429.013C498.218 426.034 495.177 424.245 492.197 425.016C489.217 425.786 487.427 428.826 488.198 431.804C488.969 434.782 492.01 436.572 494.99 435.801Z" fill="white"/>
<path d="M497.521 426.507C495.488 424.387 491.734 424.533 489.934 426.798C485.976 431.717 492.308 438.046 497.229 434.089C499.486 432.291 499.651 428.538 497.521 426.507ZM497.521 426.507C501.168 430.006 498.737 436.559 493.582 436.724C490.187 436.957 487.075 433.856 487.298 430.444C487.464 425.291 494.01 422.861 497.511 426.507H497.521Z" fill="#DCDCDC"/>
<path d="M494.807 341.065C494.807 341.065 445.115 343.243 388.769 343.243C332.423 343.243 282.73 341.065 282.73 341.065C292.904 315.586 306.2 295.89 307.669 294.791C309.128 293.693 314.361 291.768 315.82 291.399C322.064 289.834 366.699 289.561 388.769 289.561C410.838 289.561 455.464 289.834 461.708 291.399C463.177 291.758 468.409 293.693 469.868 294.791C471.337 295.89 484.633 315.586 494.807 341.065Z" fill="#376E89"/>
<path d="M494.807 341.065C494.807 341.065 445.115 343.243 388.769 343.243C332.423 343.243 282.73 341.065 282.73 341.065C283.693 338.664 284.676 336.321 285.668 334.037C297.106 334.494 340.496 336.088 388.769 336.088C437.041 336.088 480.431 334.494 491.87 334.037C492.862 336.321 493.844 338.664 494.807 341.065Z" fill="#1A2E35"/>
<g opacity="0.7">
<path d="M372.35 320.135H302.971C300.987 320.135 299.304 321.574 298.993 323.528L297.213 334.717C296.824 337.157 298.711 339.374 301.191 339.374H374.121C376.601 339.374 378.488 337.157 378.099 334.717L376.319 323.528C376.008 321.574 374.325 320.135 372.341 320.135H372.35Z" fill="#1A2E35"/>
<path d="M358.49 307.157H316.822C314.754 307.157 313.077 308.833 313.077 310.9V320.728C313.077 322.795 314.754 324.471 316.822 324.471H358.49C360.558 324.471 362.235 322.795 362.235 320.728V310.9C362.235 308.833 360.558 307.157 358.49 307.157Z" fill="#1A2E35"/>
</g>
<g opacity="0.7">
<path d="M474.566 320.135H405.187C403.203 320.135 401.52 321.574 401.209 323.528L399.429 334.717C399.04 337.157 400.927 339.374 403.407 339.374H476.337C478.817 339.374 480.704 337.157 480.315 334.717L478.535 323.528C478.224 321.574 476.541 320.135 474.557 320.135H474.566Z" fill="#1A2E35"/>
<path d="M460.716 307.157H419.047C416.979 307.157 415.303 308.833 415.303 310.9V320.728C415.303 322.795 416.979 324.471 419.047 324.471H460.716C462.784 324.471 464.461 322.795 464.461 320.728V310.9C464.461 308.833 462.784 307.157 460.716 307.157Z" fill="#1A2E35"/>
</g>
<path d="M474.255 338.645H405.498L412.083 329.283L439.882 327.815L467.68 329.283L474.255 338.645Z" fill="#1A2E35"/>
<path d="M439.872 315.07C431.011 315.07 423.813 322.274 423.813 331.13C423.813 332.705 424.047 334.241 424.475 335.689C425.272 338.421 426.79 340.851 428.803 342.747C430.69 342.718 432.528 342.669 434.357 342.63C431.42 341.211 429.105 338.693 427.947 335.621C427.422 334.221 427.13 332.715 427.13 331.13C427.13 328.602 427.879 326.24 429.153 324.257C429.747 323.324 430.466 322.459 431.283 321.72C433.559 319.649 436.565 318.376 439.872 318.376C443.179 318.376 446.476 319.756 448.781 322.002C449.569 322.77 450.26 323.635 450.824 324.588C451.972 326.503 452.633 328.739 452.633 331.13C452.633 332.501 452.419 333.813 452.011 335.057C450.989 338.207 448.781 340.822 445.912 342.368C447.818 342.319 449.686 342.271 451.476 342.222C453.392 340.22 454.792 337.731 455.473 334.96C455.775 333.726 455.94 332.452 455.94 331.13C455.94 322.274 448.733 315.07 439.872 315.07Z" fill="#1A2E35"/>
<path d="M440.212 333.016L428.171 323.47L430.223 320.884L440.212 328.797L450.201 320.884L452.254 323.47L440.212 333.016Z" fill="#1A2E35"/>
<g opacity="0.1">
<path d="M371.125 289.62L318.466 342.251C313.865 342.135 309.614 342.008 305.763 341.892L357.945 289.736C362.4 289.688 366.855 289.649 371.125 289.62Z" fill="white"/>
<path d="M471.59 296.92L425.535 342.951C421.236 343.01 416.81 343.068 412.297 343.117L463.488 291.953C465.647 292.701 468.789 293.965 469.868 294.782C470.121 294.976 470.715 295.705 471.59 296.911V296.92Z" fill="white"/>
<path d="M491.033 332.161L481.608 341.581C477.796 341.717 473.253 341.862 468.108 342.008L486.831 323.295C488.232 326.114 489.633 329.069 491.024 332.161H491.033Z" fill="white"/>
<path d="M353.783 289.785L301.775 341.765C301.104 341.746 300.462 341.726 299.82 341.707L351.74 289.814L353.773 289.785H353.783Z" fill="white"/>
<path d="M416.733 289.707L363.305 343.097C362.643 343.097 361.982 343.078 361.321 343.068L414.739 289.678C415.4 289.678 416.061 289.678 416.733 289.707Z" fill="white"/>
<path d="M484.351 318.395L460.512 342.222C459.831 342.242 459.14 342.251 458.44 342.28L483.651 317.083C483.884 317.51 484.118 317.948 484.342 318.395H484.351Z" fill="white"/>
<path d="M325.352 290.524L288.916 326.94C290.424 323.771 291.932 320.777 293.41 317.967L320.566 290.825C321.948 290.718 323.552 290.621 325.342 290.533L325.352 290.524Z" fill="white"/>
<path d="M434.279 289.96L380.988 343.223C379.49 343.223 378.002 343.223 376.523 343.204L429.873 289.872C431.371 289.902 432.84 289.931 434.279 289.96Z" fill="white"/>
</g>
<path opacity="0.1" d="M282.73 341.065C280.415 346.461 277.245 351.506 274.025 356.406C273.938 356.542 273.762 356.795 273.685 356.931C273.51 357.494 274.161 358.661 274.511 359.273C274.998 360.148 275.581 360.994 276.145 361.859C274.755 360.761 271.525 358.049 272.654 356.075C275.474 350.777 278.801 345.625 282.73 341.065Z" fill="black"/>
<path opacity="0.1" d="M494.807 341.065C498.737 345.625 502.063 350.777 504.884 356.075C506.002 358.058 502.783 360.761 501.392 361.859C501.956 360.994 502.54 360.148 503.026 359.264C503.367 358.661 504.018 357.485 503.853 356.921C503.775 356.795 503.6 356.532 503.512 356.396C500.303 351.496 497.132 346.451 494.807 341.056V341.065Z" fill="black"/>
<path opacity="0.1" d="M514.114 382.624C514.114 383.791 514.066 390.469 513.151 391.014C510.613 392.53 499.408 396.079 492.415 397.372C459.695 403.409 412.132 406.801 388.759 406.413C365.386 406.801 317.824 403.399 285.104 397.372C278.11 396.079 266.905 392.54 264.367 391.014C263.452 390.469 263.404 383.791 263.404 382.624C263.404 381.458 271.185 365.923 272.634 365.534C274.083 365.135 290.229 374.332 317.308 379.202C345.068 384.199 388.759 384.325 388.759 384.325C388.759 384.325 432.451 384.189 460.21 379.202C487.279 374.332 503.435 365.971 504.884 366.36C506.333 366.749 514.114 381.467 514.114 382.624Z" fill="black"/>
<path opacity="0.5" d="M513.161 391.014C503.824 395.991 493.436 398.587 483.067 400.376C472.709 402.261 462.292 403.856 451.836 405.207C430.914 407.822 409.885 409.941 388.769 409.912C354.502 409.621 320.333 405.343 286.718 398.869C278.995 397.265 271.37 394.669 264.376 391.024C271.535 394.154 279.219 396.429 286.942 397.644C320.644 402.505 354.697 406.422 388.769 406.607C409.729 406.724 430.68 404.721 451.534 402.66C461.971 401.542 472.407 400.298 482.805 398.801C487.989 398.042 493.212 397.449 498.27 396.088C503.308 394.679 508.405 393.24 513.161 391.024V391.014Z" fill="white"/>
<path d="M278.597 362.433C284.238 362.958 311.025 379.581 312.153 380.952C313.281 382.323 315.995 396.069 314.312 397.42C312.62 398.771 292.379 398.081 286.28 397.099C280.182 396.118 267.576 392.705 264.736 390.528C261.896 388.35 264.075 372.971 266.857 369.899C270.436 365.942 274.969 362.112 278.587 362.443L278.597 362.433Z" fill="white"/>
<path d="M278.597 362.433C280.046 362.686 281.466 363.22 282.798 363.813C286.864 365.583 290.764 367.731 294.665 369.85C300.481 373.107 306.307 376.364 311.851 380.097C312.562 380.515 312.98 381.331 313.203 382.119C313.69 383.558 314.04 385.006 314.371 386.455C314.983 389.41 315.567 392.326 315.548 395.389C315.499 397.109 315.217 398.256 313.33 398.48C308.496 399.19 303.613 398.927 298.76 398.84C294.295 398.616 289.821 398.48 285.395 397.692C278.83 396.341 272.303 394.601 266.176 391.85C265.495 391.49 264.834 391.199 264.182 390.547C262.538 387.903 263.122 384.51 263.316 381.584C263.9 377.608 264.435 373.311 266.73 369.909C269.843 366.74 273.821 362.355 278.597 362.414V362.433ZM278.597 362.433C274.045 362.433 270.572 366.185 267.586 369.199C266.497 370.239 265.874 371.561 265.437 372.981C264.542 375.78 264.085 378.716 263.841 381.642C263.686 383.82 263.627 386.037 264.055 388.175C264.299 389.264 264.61 390.09 265.612 390.567C270.562 392.948 276.029 394.105 281.349 395.359C287.068 396.74 292.953 396.983 298.828 397.206C301.775 397.323 304.722 397.391 307.659 397.352C309.692 397.274 311.929 397.391 313.845 396.847C313.826 396.934 313.982 396.652 314.03 396.351C314.41 393.191 313.787 389.906 313.272 386.707C312.921 384.938 312.6 383.12 311.929 381.477C311.842 381.215 311.56 381.069 311.317 380.836C305.948 376.947 300.257 373.476 294.558 370.064C290.716 367.858 286.864 365.631 282.798 363.852C281.466 363.25 280.056 362.695 278.606 362.443L278.597 362.433Z" fill="#DCDCDC"/>
<path d="M292.496 382.935C292.564 389.604 284.364 393.259 279.433 388.642C276.165 385.735 276.165 380.136 279.433 377.239C284.364 372.611 292.574 376.276 292.496 382.945V382.935ZM292.496 382.935C292.535 376.646 284.588 373.593 280.435 378.24C278.003 380.806 278.003 385.064 280.435 387.631C284.578 392.278 292.535 389.225 292.496 382.935Z" fill="#DCDCDC"/>
<path d="M307.484 387.815C307.591 393.454 300.501 396.672 296.328 392.725C293.498 390.226 293.498 385.385 296.328 382.896C300.501 378.95 307.601 382.177 307.494 387.815H307.484ZM307.484 387.815C307.504 382.488 300.822 379.97 297.33 383.907C294.062 387.359 296.464 393.376 301.24 393.639C304.469 393.969 307.552 391.111 307.484 387.806V387.815Z" fill="#DCDCDC"/>
<path d="M276.136 376.053C275.27 378.551 274.356 390.742 274.813 392.346C275.007 393.007 275.679 393.95 276.408 394.844C271.35 393.473 266.39 391.792 264.736 390.508C261.896 388.331 264.075 372.961 266.866 369.88C270.436 365.923 274.978 362.083 278.597 362.423C279.871 362.54 282.244 363.483 285.142 364.892C285.142 364.892 277.001 373.544 276.145 376.043L276.136 376.053Z" fill="#FFC800"/>
<path opacity="0.2" d="M276.136 376.053C275.27 378.551 274.356 390.742 274.813 392.355C275.007 393.016 275.679 393.959 276.408 394.854C271.35 393.483 266.39 391.801 264.736 390.518C261.896 388.34 264.075 372.971 266.866 369.889C270.436 365.933 274.978 362.093 278.597 362.433C279.871 362.55 282.244 363.493 285.142 364.902C285.142 364.902 277.001 373.554 276.145 376.053H276.136Z" fill="black"/>
<path d="M498.941 362.433C493.3 362.958 466.513 379.581 465.385 380.952C464.256 382.323 461.543 396.069 463.225 397.42C464.918 398.771 485.159 398.081 491.257 397.099C497.356 396.118 509.961 392.705 512.801 390.528C515.641 388.35 513.463 372.971 510.681 369.899C507.102 365.942 502.569 362.112 498.951 362.443L498.941 362.433Z" fill="white"/>
<path d="M498.941 362.433C497.492 362.695 496.081 363.24 494.749 363.843C490.683 365.622 486.832 367.848 482.99 370.055C477.29 373.467 471.6 376.937 466.231 380.826C465.988 381.059 465.706 381.205 465.618 381.467C464.947 383.12 464.626 384.938 464.276 386.698C463.76 389.906 463.138 393.191 463.517 396.341C463.556 396.643 463.721 396.924 463.702 396.837C463.76 396.876 464.159 396.992 464.48 397.031C469.178 397.576 473.983 397.323 478.72 397.206C484.585 396.983 490.469 396.74 496.198 395.359C501.519 394.096 506.985 392.939 511.936 390.567C512.937 390.09 513.258 389.264 513.492 388.175C513.92 386.036 513.852 383.82 513.706 381.642C513.463 378.716 513.006 375.78 512.111 372.981C511.663 371.571 511.041 370.239 509.951 369.199C506.975 366.185 503.493 362.423 498.941 362.423V362.433ZM498.941 362.433C503.726 362.375 507.685 366.749 510.807 369.928C513.103 373.331 513.628 377.627 514.221 381.604C514.406 384.549 514.999 387.903 513.356 390.567C512.704 391.218 512.043 391.51 511.362 391.869C505.244 394.62 498.708 396.37 492.142 397.712C484.769 398.888 477.309 398.985 469.859 398.937C467.991 398.878 466.085 398.82 464.208 398.499C463.799 398.402 463.459 398.383 462.875 398.052C462.418 397.77 462.185 397.119 462.107 396.623C461.708 393.182 462.525 389.818 463.177 386.474C463.507 385.016 463.857 383.567 464.344 382.138C464.577 381.351 464.976 380.534 465.696 380.116C471.23 376.373 477.066 373.126 482.883 369.87C486.773 367.741 490.673 365.602 494.749 363.833C496.081 363.24 497.501 362.695 498.951 362.452L498.941 362.433Z" fill="#DCDCDC"/>
<path d="M485.042 382.935C485.003 389.225 492.959 392.278 497.103 387.631C499.534 385.064 499.534 380.806 497.103 378.24C492.949 373.593 485.003 376.646 485.042 382.935ZM485.042 382.935C484.964 376.266 493.173 372.602 498.105 377.229C501.363 380.126 501.373 385.725 498.105 388.632C493.173 393.25 484.974 389.594 485.042 382.926V382.935Z" fill="#DCDCDC"/>
<path d="M470.053 387.815C469.975 391.111 473.059 393.979 476.298 393.648C483.466 392.939 483.466 382.702 476.298 381.992C473.068 381.652 469.975 384.539 470.053 387.815ZM470.053 387.815C469.946 382.177 477.047 378.95 481.219 382.896C484.05 385.385 484.05 390.226 481.219 392.725C477.047 396.672 469.946 393.454 470.063 387.815H470.053Z" fill="#DCDCDC"/>
<path d="M501.402 376.053C502.268 378.551 503.182 390.742 502.725 392.346C502.53 393.007 501.859 393.95 501.129 394.844C506.187 393.473 511.148 391.792 512.801 390.508C515.641 388.331 513.463 372.961 510.671 369.88C507.102 365.923 502.559 362.083 498.941 362.423C497.667 362.54 495.294 363.483 492.395 364.892C492.395 364.892 500.536 373.544 501.392 376.043L501.402 376.053Z" fill="#FFC800"/>
<path opacity="0.2" d="M501.402 376.053C502.268 378.551 503.182 390.742 502.725 392.355C502.53 393.016 501.859 393.959 501.129 394.854C506.187 393.483 511.148 391.801 512.801 390.518C515.641 388.34 513.463 372.971 510.671 369.889C507.102 365.933 502.559 362.093 498.941 362.433C497.667 362.55 495.294 363.493 492.395 364.902C492.395 364.902 500.536 373.554 501.392 376.053H501.402Z" fill="black"/>
<path d="M460.22 379.193C460.356 379.805 453.557 394.436 452.312 396.234C451.077 398.023 445.163 401.114 443.782 401.387C442.411 401.659 421.236 405.946 388.769 405.946C356.302 405.946 335.127 401.659 333.746 401.387C332.374 401.114 326.461 398.023 325.225 396.234C323.98 394.436 317.182 379.805 317.318 379.193C317.454 378.58 337.802 382.547 350.116 383.033C356.165 383.276 375.142 384.326 388.769 384.326C402.396 384.326 421.372 383.276 427.422 383.033C439.726 382.556 460.084 378.59 460.22 379.193Z" fill="#2B454E"/>
<path d="M330.711 380.923C333.483 381.322 336.45 381.73 339.397 382.08H318.427C318.232 381.662 318.067 381.273 317.931 380.923H330.711ZM446.826 380.923C444.054 381.322 441.088 381.73 438.141 382.08H459.111C459.305 381.662 459.471 381.273 459.607 380.923H446.826ZM401.413 384.102C397.046 384.228 392.689 384.316 388.769 384.316C384.849 384.316 380.492 384.228 376.124 384.102H319.312C319.477 384.471 319.652 384.85 319.837 385.249H457.71C457.895 384.85 458.07 384.471 458.236 384.102H401.423H401.413ZM320.761 387.271C320.936 387.66 321.121 388.039 321.296 388.418H456.242C456.426 388.039 456.602 387.66 456.777 387.271H320.761ZM322.249 390.431C322.444 390.829 322.628 391.218 322.813 391.587H454.734C454.919 391.218 455.104 390.829 455.298 390.431H322.259H322.249ZM323.796 393.6C324.01 394.018 324.214 394.407 324.389 394.757H453.149C453.324 394.407 453.528 394.018 453.742 393.6H323.796ZM325.692 396.769C326.052 397.129 326.548 397.517 327.122 397.926H450.425C450.999 397.517 451.495 397.129 451.855 396.769H325.692ZM330.478 399.938C331.392 400.424 332.238 400.832 332.88 401.085H444.638C445.28 400.832 446.145 400.424 447.05 399.938H330.468H330.478ZM344.416 403.107C347.188 403.486 350.456 403.885 354.181 404.254H423.356C427.082 403.885 430.35 403.486 433.122 403.107H344.416Z" fill="#375A64"/>
<path d="M415.877 415.969H361.661V430.444H415.877V415.969Z" fill="white"/>
<defs>
<linearGradient id="paint0_linear_1851_2845" x1="471.693" y1="127.021" x2="145.998" y2="371.416" gradientUnits="userSpaceOnUse">
<stop stop-color="#2EA0E7"/>
<stop offset="1" stop-color="#075382"/>
</linearGradient>
<linearGradient id="paint1_linear_1851_2845" x1="175.807" y1="289.416" x2="274.171" y2="289.416" gradientUnits="userSpaceOnUse">
<stop stop-color="#FF9085"/>
<stop offset="1" stop-color="#FB6FBB"/>
</linearGradient>
<linearGradient id="paint2_linear_1851_2845" x1="372.564" y1="222.493" x2="486.445" y2="515.984" gradientUnits="userSpaceOnUse">
<stop stop-color="#FF9085"/>
<stop offset="1" stop-color="#FB6FBB"/>
</linearGradient>
<linearGradient id="paint3_linear_1851_2845" x1="246.684" y1="289.25" x2="371.242" y2="290.009" gradientUnits="userSpaceOnUse">
<stop stop-color="#FF9085"/>
<stop offset="1" stop-color="#FB6FBB"/>
</linearGradient>
<linearGradient id="paint4_linear_1851_2845" x1="393.087" y1="295.443" x2="394.877" y2="295.443" gradientUnits="userSpaceOnUse">
<stop stop-color="#311944"/>
<stop offset="1" stop-color="#A03976"/>
</linearGradient>
<linearGradient id="paint5_linear_1851_2845" x1="227.892" y1="289.639" x2="229.692" y2="289.639" gradientUnits="userSpaceOnUse">
<stop stop-color="#311944"/>
<stop offset="1" stop-color="#A03976"/>
</linearGradient>
<linearGradient id="paint6_linear_1851_2845" x1="183.335" y1="245.64" x2="446.7" y2="245.64" gradientUnits="userSpaceOnUse">
<stop stop-color="#311944"/>
<stop offset="1" stop-color="#A03976"/>
</linearGradient>
<linearGradient id="paint7_linear_1851_2845" x1="320.158" y1="312.105" x2="183.085" y2="294.209" gradientUnits="userSpaceOnUse">
<stop stop-color="#2EA0E7"/>
<stop offset="1" stop-color="#075382"/>
</linearGradient>
<linearGradient id="paint8_linear_1851_2845" x1="324.117" y1="281.775" x2="187.043" y2="263.888" gradientUnits="userSpaceOnUse">
<stop stop-color="#2EA0E7"/>
<stop offset="1" stop-color="#075382"/>
</linearGradient>
<linearGradient id="paint9_linear_1851_2845" x1="324.778" y1="276.69" x2="187.704" y2="258.804" gradientUnits="userSpaceOnUse">
<stop stop-color="#2EA0E7"/>
<stop offset="1" stop-color="#075382"/>
</linearGradient>
<linearGradient id="paint10_linear_1851_2845" x1="179.357" y1="161.035" x2="239.247" y2="315.383" gradientUnits="userSpaceOnUse">
<stop stop-color="#2EA0E7"/>
<stop offset="1" stop-color="#075382"/>
</linearGradient>
<linearGradient id="paint11_linear_1851_2845" x1="387.981" y1="219.266" x2="410.186" y2="276.484" gradientUnits="userSpaceOnUse">
<stop stop-color="#2EA0E7"/>
<stop offset="1" stop-color="#075382"/>
</linearGradient>
</defs>
</svg>
