<svg width="26" height="18" viewBox="0 0 26 18" fill="none" xmlns="http://www.w3.org/2000/svg">
<path d="M17.6589 3.49519C17.5275 6.87624 16.0262 9.54951 13.0457 11.4579C12.893 11.5553 12.7758 11.5679 12.6177 11.4663C9.9258 9.7443 8.38095 7.36489 8.03469 4.30456C7.98408 3.85706 8.00539 3.402 7.98674 2.95029C7.97964 2.7681 8.05155 2.67155 8.25132 2.64888C9.85832 2.47256 11.2718 1.85126 12.5591 0.953735C12.7651 0.810165 12.9063 0.826117 13.1007 0.961292C14.3837 1.8479 15.7856 2.47256 17.3828 2.64804C17.5728 2.66903 17.6714 2.74543 17.6616 2.93686C17.6527 3.12241 17.6598 3.3088 17.6598 3.49519H17.6589ZM12.0495 6.59078C11.8134 6.33134 11.6029 6.09458 11.3854 5.86369C11.1803 5.64623 10.9166 5.61685 10.7169 5.77973C10.518 5.94261 10.51 6.19617 10.7053 6.41866C10.9575 6.70496 11.2176 6.98455 11.4733 7.26833C11.8986 7.74102 12.196 7.74438 12.616 7.27673C13.3573 6.45225 14.0978 5.62776 14.8382 4.80244C14.9048 4.72856 14.9768 4.65467 15.0247 4.56987C15.1357 4.37341 15.1037 4.18534 14.9244 4.04261C14.745 3.90072 14.5426 3.89904 14.3588 4.04093C14.2656 4.11313 14.191 4.20717 14.112 4.29532C13.431 5.0518 12.7518 5.80912 12.0495 6.59078Z" fill="#36AFFA"/>
<path d="M23.1068 12.7181C23.5276 12.8491 23.9458 12.9541 24.3391 13.1144C24.4723 13.169 24.6196 13.3562 24.6294 13.4923C24.6747 14.1102 24.5353 14.7038 24.2521 15.2957C23.7345 15.1387 23.2293 14.9867 22.7241 14.8331C22.0919 14.6417 21.9517 14.6836 21.5548 15.1765C21.2707 15.5291 20.9679 15.8691 20.698 16.231C20.572 16.3998 20.4459 16.4216 20.2532 16.3746C17.4272 15.6777 14.5994 14.9867 11.7725 14.2915C11.4742 14.2185 11.1803 14.1303 10.8305 14.0338C11.2016 13.3722 11.5612 12.7299 11.919 12.0926C11.9554 12.0968 11.9767 12.0926 11.9883 12.101C12.5929 12.5544 13.1762 12.4957 13.7444 12.0389C14.3357 11.5629 14.9341 11.0944 15.5157 10.6074C15.6515 10.4941 15.7492 10.4462 15.9294 10.5067C16.4479 10.6805 16.9753 10.8333 17.5195 11.0003C17.294 11.9121 17.429 12.7442 18.0292 13.4813C18.4376 13.9834 18.9774 14.305 19.6246 14.4653C20.8516 14.7684 22.4142 14.2865 23.1068 12.7198V12.7181ZM13.8856 14.2034C14.1972 14.2034 14.3677 14.0984 14.4156 13.8642C14.4636 13.6325 14.3615 13.452 14.1226 13.3873C13.6556 13.2605 13.1833 13.1463 12.7092 13.0456C12.4917 12.9994 12.2662 13.1514 12.2173 13.3537C12.1658 13.5687 12.236 13.7693 12.4579 13.8356C12.9471 13.9826 13.4488 14.0926 13.8856 14.2034Z" fill="#36AFFA"/>
<path d="M9.39933 10.0298C9.96578 10.5621 10.5358 11.0977 11.1395 11.6653C10.7835 12.3009 10.3733 13.0338 9.95068 13.7878C9.47391 13.656 8.98648 13.5342 8.50882 13.3856C6.25103 12.6829 3.9959 11.9768 1.74166 11.264C1.12993 11.0709 0.998532 10.8794 1.00208 10.2623C1.0083 8.98362 1.40605 7.82246 2.1918 6.78136C2.44306 6.44804 2.57446 6.40858 2.97843 6.532C3.47474 6.68397 3.96927 6.83846 4.46646 6.9921C3.74997 8.699 4.12819 10.0659 5.51412 10.8391C6.69673 11.499 8.4085 11.3521 9.40111 10.0298H9.39933Z" fill="#36AFFA"/>
<path d="M21.7599 16.6701C21.6942 16.6525 21.6294 16.634 21.522 16.6046C21.7839 16.2856 22.0254 15.985 22.2793 15.6928C22.3139 15.6534 22.4169 15.6341 22.4737 15.65C22.8928 15.7717 23.3083 15.9052 23.7798 16.0522C23.572 16.2755 23.3864 16.4745 23.1725 16.7045C23.2985 16.7113 23.3953 16.7196 23.493 16.7205C23.9902 16.723 24.4874 16.7146 24.9846 16.7272C25.2554 16.7339 25.4356 16.9195 25.4347 17.147C25.4347 17.3771 25.2571 17.5441 24.9837 17.5668C24.8904 17.5744 24.7963 17.5718 24.7022 17.5718C16.7853 17.5718 8.86749 17.5718 0.950568 17.5718C0.828933 17.5718 0.705523 17.5744 0.585664 17.5559C0.349497 17.5189 0.219871 17.3712 0.21632 17.152C0.212768 16.9312 0.340618 16.7818 0.574122 16.7381C0.692205 16.7163 0.816504 16.7213 0.938138 16.7213C4.38121 16.7213 7.82339 16.7213 11.2665 16.7213H11.5905L11.5994 16.6634C11.2034 16.5484 10.8074 16.4342 10.3884 16.3124C10.4798 15.833 10.5686 15.3671 10.6609 14.8801C12.3807 15.3318 14.072 15.7768 15.8282 16.2377C15.426 16.3939 15.0798 16.5282 14.7335 16.6626C14.7353 16.6743 14.7379 16.6869 14.7397 16.6987H21.7421C21.7475 16.6894 21.7537 16.6793 21.759 16.6701H21.7599Z" fill="#36AFFA"/>
<path d="M20.3278 9.86772C21.4492 9.86017 22.3503 10.6998 22.3601 11.7602C22.3699 12.8248 21.4589 13.698 20.3376 13.698C19.2269 13.698 18.3186 12.8374 18.3195 11.7845C18.3204 10.7216 19.2083 9.87444 20.3287 9.86688L20.3278 9.86772Z" fill="#36AFFA"/>
<path d="M6.99325 10.369C6.16578 10.3287 5.53097 9.99114 5.16695 9.27916C4.80294 8.56719 4.88995 7.87032 5.4049 7.25826C5.91275 6.65459 6.60171 6.42706 7.40877 6.58826C7.51087 6.60841 7.62451 6.71336 7.67334 6.80739C8.04624 7.51937 8.39871 8.24058 8.7725 8.95172C8.84264 9.08438 8.86306 9.18345 8.78759 9.31526C8.3996 9.99114 7.79232 10.3236 6.99325 10.3698V10.369Z" fill="#36AFFA"/>
<path d="M9.78462 14.6509C9.69761 15.1202 9.61327 15.5728 9.52271 16.0597C9.12673 15.9422 8.74406 15.8398 8.36939 15.7155C7.43272 15.4057 6.50137 15.0816 5.56558 14.7718C5.2353 14.6627 4.95563 14.4956 4.76385 14.2185C4.48507 13.8147 4.21694 13.4041 3.94348 12.9961C3.96568 12.9793 3.98876 12.9616 4.01096 12.9448C5.92693 13.5107 7.84201 14.0766 9.78462 14.6501V14.6509Z" fill="#36AFFA"/>
</svg>
